<svg width="566" height="563" viewBox="0 0 566 563" fill="none" xmlns="http://www.w3.org/2000/svg">
<g clip-path="url(#clip0_6979_3658)">
<rect width="67.6466" height="741.448" transform="translate(442 14)" fill="#F9FAFC"/>
<g clip-path="url(#clip1_6979_3658)">
<path d="M488.167 55.6656C486.131 55.5812 484.104 55.1485 482.173 54.7264C480.073 54.2726 477.91 53.7977 475.757 53.7977C473.604 53.7977 471.441 54.2726 469.341 54.7264C467.41 55.1485 465.384 55.5812 463.347 55.6656V54.4203C465.278 54.3359 467.199 53.9138 469.077 53.5128C471.241 53.0485 473.467 52.563 475.757 52.563C478.047 52.563 480.274 53.0485 482.437 53.5128C484.316 53.9243 486.236 54.3465 488.167 54.4203V55.6656Z" fill="#002848"/>
<path d="M488.167 52.9113C486.004 52.7108 483.936 51.856 482.015 51.0328C479.904 50.1253 477.91 49.26 475.757 49.26C473.604 49.26 471.61 50.1147 469.489 51.0328C467.568 51.856 465.51 52.7108 463.347 52.9113V51.2756C465.257 51.0962 466.967 50.3364 468.845 49.5238C471.019 48.5846 473.267 47.6243 475.757 47.6243C478.248 47.6243 480.495 48.5951 482.669 49.5238C484.548 50.3364 486.257 51.0962 488.167 51.2756V52.9113Z" fill="#002848"/>
<path d="M488.167 50.1464C485.804 49.8298 483.693 48.5635 481.783 47.3393C479.778 46.0519 477.889 44.8383 475.757 44.8383C473.625 44.8383 471.736 46.0519 469.731 47.3393C467.821 48.5635 465.7 49.8298 463.347 50.1464V48.1308C465.257 47.8775 466.829 46.78 468.634 45.6192C470.797 44.2262 473.034 42.8016 475.768 42.8016C478.501 42.8016 480.738 44.2368 482.901 45.6192C484.706 46.78 486.278 47.867 488.188 48.1308V50.1464H488.167Z" fill="#002848"/>
<path d="M488.167 47.3815C485.582 46.9489 483.419 45.2499 481.519 43.6036C479.641 41.9679 477.857 40.4377 475.757 40.4377C473.657 40.4377 471.874 41.9784 469.995 43.6141C468.096 45.2604 465.922 46.9594 463.347 47.3921V44.986C465.246 44.6694 466.682 43.2554 468.402 41.7674C470.544 39.9101 472.75 38 475.757 38C478.765 38 480.981 39.9101 483.113 41.7674C484.833 43.2554 486.257 44.6694 488.167 44.986V47.3921V47.3815Z" fill="#002848"/>
</g>
<path d="M466.946 67.9922L467.819 63.6255H469.928C470.402 63.6255 470.764 63.7107 471.013 63.8812C471.267 64.0518 471.394 64.2992 471.394 64.6236C471.394 64.8981 471.321 65.1289 471.175 65.316C471.034 65.5032 470.845 65.6446 470.608 65.7402C470.371 65.8359 470.113 65.8837 469.834 65.8837L469.996 65.6342C470.362 65.6342 470.653 65.7194 470.87 65.8899C471.09 66.0563 471.2 66.2975 471.2 66.6136C471.2 66.9213 471.115 67.1791 470.944 67.3871C470.778 67.5909 470.547 67.7427 470.252 67.8425C469.957 67.9423 469.618 67.9922 469.235 67.9922H466.946ZM468.106 67.2311H469.298C469.576 67.2311 469.795 67.1791 469.953 67.0752C470.115 66.9671 470.196 66.809 470.196 66.6011C470.196 66.4389 470.136 66.3245 470.015 66.258C469.899 66.1873 469.74 66.1519 469.541 66.1519H468.206L468.356 65.4158H469.491C469.666 65.4158 469.815 65.393 469.94 65.3472C470.069 65.3015 470.167 65.2328 470.233 65.1414C470.3 65.0457 470.333 64.9313 470.333 64.7983C470.333 64.6527 470.277 64.5487 470.165 64.4863C470.052 64.4198 469.894 64.3865 469.691 64.3865H468.668L468.106 67.2311ZM473.419 65.3846H475.521L475.365 66.1706H473.263L473.419 65.3846ZM473.132 67.1812H475.515L475.346 67.9922H471.965L472.839 63.6255H476.139L475.97 64.4364H473.681L473.132 67.1812ZM477.305 67.9922L478.009 64.4489H476.612L476.781 63.6255H480.586L480.417 64.4489H479.026L478.315 67.9922H477.305ZM479.713 67.9922L482.532 63.6255H483.536L484.609 67.9922H483.599L482.75 64.1245H483.15L480.792 67.9922H479.713ZM480.879 67.0565L481.291 66.2892H483.543L483.661 67.0565H480.879Z" fill="#002848"/>
<line x1="458" y1="97.0417" x2="493.647" y2="97.0417" stroke="#CFD6D9" stroke-width="0.891164"/>
<rect x="458" y="109.487" width="35.6466" height="35.6466" rx="3.56466" fill="#D9EEFF"/>
<g clip-path="url(#clip2_6979_3658)">
<path fill-rule="evenodd" clip-rule="evenodd" d="M471.78 121.988C471.541 122.17 471.312 122.369 471.097 122.584C470.22 123.461 469.612 124.557 469.326 125.743H470.047C470.682 125.743 471.291 125.995 471.739 126.444C472.188 126.892 472.44 127.501 472.44 128.136V128.961C472.44 129.202 472.536 129.433 472.706 129.603C472.876 129.773 473.107 129.869 473.348 129.869C473.982 129.869 474.591 130.121 475.04 130.569C475.489 131.018 475.741 131.627 475.741 132.262V133.994C475.768 133.994 475.796 133.994 475.823 133.994C476.41 133.994 476.992 133.917 477.556 133.766V132.262C477.556 131.627 477.808 131.018 478.257 130.569C478.706 130.121 479.314 129.869 479.949 129.869H481.998C481.998 129.869 481.998 129.868 481.998 129.868C482.334 129.057 482.507 128.188 482.507 127.311C482.507 126.424 482.331 125.556 481.998 124.753H481.599C481.359 124.753 481.128 124.848 480.958 125.018C480.787 125.189 480.692 125.42 480.692 125.66C480.692 126.295 480.44 126.904 479.991 127.352C479.542 127.801 478.933 128.053 478.299 128.053C477.664 128.053 477.055 127.801 476.607 127.352C476.158 126.904 475.906 126.295 475.906 125.66C475.906 125.42 475.81 125.189 475.64 125.018C475.47 124.848 475.239 124.753 474.998 124.753H474.586C473.842 124.753 473.128 124.457 472.602 123.931C472.085 123.414 471.791 122.717 471.78 121.988ZM472.141 120.019C471.374 120.406 470.666 120.915 470.047 121.534C468.738 122.843 467.92 124.55 467.709 126.37C467.705 126.391 467.703 126.412 467.701 126.434C467.67 126.724 467.654 127.016 467.654 127.311C467.654 128.383 467.866 129.446 468.276 130.437C468.687 131.428 469.288 132.328 470.047 133.087C470.806 133.846 471.706 134.447 472.697 134.858C473.397 135.148 474.132 135.338 474.882 135.425C474.904 135.429 474.925 135.431 474.947 135.433C475.238 135.464 475.53 135.48 475.823 135.48C476.731 135.48 477.632 135.328 478.488 135.033C478.528 135.022 478.566 135.009 478.603 134.992C478.719 134.95 478.835 134.905 478.949 134.858C479.941 134.447 480.841 133.846 481.6 133.087C482.216 132.47 482.729 131.76 483.12 130.984C483.136 130.956 483.151 130.927 483.163 130.897C483.237 130.746 483.306 130.592 483.37 130.437C483.781 129.446 483.992 128.383 483.992 127.311C483.992 126.056 483.704 124.831 483.163 123.725C483.151 123.695 483.136 123.666 483.12 123.638C482.732 122.867 482.221 122.156 481.6 121.534C480.068 120.002 477.99 119.142 475.823 119.142C474.573 119.142 473.351 119.428 472.248 119.966C472.21 119.981 472.175 119.998 472.141 120.019ZM473.265 121.136V121.947C473.265 122.297 473.404 122.633 473.652 122.881C473.9 123.128 474.235 123.267 474.586 123.267H474.998C475.633 123.267 476.241 123.519 476.69 123.968C477.139 124.417 477.391 125.026 477.391 125.66C477.391 125.901 477.487 126.132 477.657 126.302C477.827 126.472 478.058 126.568 478.299 126.568C478.539 126.568 478.77 126.472 478.941 126.302C479.111 126.132 479.206 125.901 479.206 125.66C479.206 125.026 479.459 124.417 479.907 123.968C480.255 123.621 480.697 123.392 481.174 123.305C480.984 123.052 480.776 122.811 480.549 122.584C479.296 121.331 477.596 120.627 475.823 120.627C474.937 120.627 474.069 120.803 473.265 121.136ZM481.145 131.354H479.949C479.708 131.354 479.477 131.449 479.307 131.62C479.137 131.79 479.041 132.021 479.041 132.262V133.169C479.594 132.865 480.102 132.484 480.549 132.037C480.764 131.822 480.963 131.594 481.145 131.354ZM474.256 133.808V132.262C474.256 132.021 474.16 131.79 473.99 131.62C473.819 131.449 473.589 131.354 473.348 131.354C472.713 131.354 472.105 131.102 471.656 130.653C471.207 130.204 470.955 129.596 470.955 128.961V128.136C470.955 127.895 470.859 127.664 470.689 127.494C470.519 127.324 470.288 127.228 470.047 127.228H469.14C469.14 127.256 469.14 127.283 469.14 127.311C469.14 128.188 469.312 129.057 469.648 129.868C469.984 130.679 470.477 131.416 471.097 132.037C471.718 132.657 472.455 133.15 473.266 133.486C473.587 133.619 473.918 133.727 474.256 133.808Z" fill="#002848"/>
</g>
<path fill-rule="evenodd" clip-rule="evenodd" d="M477.68 170.501C478.09 170.501 478.423 170.168 478.423 169.758C478.423 169.348 478.09 169.016 477.68 169.016H472.11C471.913 169.016 471.724 169.094 471.585 169.233L468.614 172.204C468.347 172.471 468.323 172.897 468.56 173.193L474.428 180.528C474.554 180.759 474.799 180.916 475.081 180.916H476.832C477.029 180.916 477.217 180.838 477.357 180.699L482.668 175.387C482.855 175.205 483.004 174.988 483.107 174.749C483.211 174.507 483.266 174.247 483.268 173.984C483.27 173.721 483.22 173.46 483.12 173.217C483.021 172.974 482.874 172.752 482.688 172.566C482.502 172.38 482.281 172.233 482.037 172.134C481.794 172.034 481.533 171.984 481.27 171.986C481.007 171.989 480.747 172.043 480.505 172.147C480.266 172.25 480.049 172.399 479.867 172.586L474.556 177.897C474.491 177.962 474.44 178.037 474.403 178.119L470.135 172.784L472.418 170.501L477.68 170.501ZM481.283 173.471C481.349 173.471 481.414 173.483 481.475 173.508C481.536 173.533 481.591 173.57 481.638 173.617C481.684 173.663 481.721 173.718 481.746 173.779C481.771 173.84 481.783 173.906 481.783 173.971C481.782 174.037 481.768 174.102 481.742 174.163C481.716 174.223 481.679 174.278 481.631 174.324L481.622 174.333L476.524 179.431H475.823V178.73L480.922 173.632L480.931 173.623C480.976 173.575 481.031 173.538 481.091 173.512C481.152 173.486 481.217 173.472 481.283 173.471Z" fill="#456178"/>
<path fill-rule="evenodd" clip-rule="evenodd" d="M470.535 215.829C470.953 215.411 471.519 215.177 472.11 215.177H476.259C476.652 215.177 477.03 215.333 477.309 215.612L481.329 219.632C481.401 219.704 481.464 219.782 481.519 219.865H483.25V227.291H481.764V227.802C481.764 228.392 481.53 228.959 481.112 229.377C480.694 229.795 480.127 230.029 479.537 230.029H472.11C471.519 230.029 470.953 229.795 470.535 229.377C470.117 228.959 469.882 228.392 469.882 227.802V227.291H468.397V219.865H469.882V217.405C469.882 216.814 470.117 216.247 470.535 215.829ZM471.368 219.865H479.461L476.258 216.662L472.11 216.662C471.913 216.662 471.724 216.74 471.585 216.88C471.446 217.019 471.368 217.208 471.368 217.405V219.865ZM471.368 227.291V227.802C471.368 227.999 471.446 228.187 471.585 228.327C471.724 228.466 471.913 228.544 472.11 228.544H479.537C479.733 228.544 479.922 228.466 480.062 228.327C480.201 228.187 480.279 227.999 480.279 227.802V227.291H471.368ZM471.104 225.812C471.318 225.856 471.538 225.878 471.763 225.878C472.152 225.878 472.488 225.82 472.773 225.705C473.063 225.586 473.286 225.422 473.445 225.212C473.603 224.998 473.682 224.749 473.682 224.464C473.682 224.281 473.645 224.131 473.569 224.012C473.494 223.889 473.395 223.788 473.272 223.709C473.15 223.63 473.015 223.564 472.868 223.513C472.722 223.462 472.575 223.416 472.429 223.376C472.282 223.337 472.148 223.297 472.025 223.258C471.902 223.214 471.803 223.162 471.728 223.103C471.656 223.04 471.621 222.958 471.621 222.859C471.621 222.76 471.654 222.673 471.722 222.598C471.793 222.519 471.894 222.457 472.025 222.414C472.159 222.37 472.32 222.349 472.506 222.349C472.712 222.349 472.912 222.376 473.106 222.432C473.3 222.483 473.476 222.562 473.635 222.669L473.997 221.933C473.819 221.818 473.605 221.731 473.356 221.671C473.106 221.608 472.841 221.576 472.559 221.576C472.175 221.576 471.841 221.636 471.555 221.754C471.27 221.869 471.048 222.032 470.89 222.242C470.736 222.452 470.658 222.699 470.658 222.984C470.658 223.174 470.696 223.333 470.771 223.46C470.846 223.586 470.944 223.691 471.062 223.774C471.185 223.854 471.32 223.921 471.466 223.976C471.617 224.028 471.765 224.073 471.912 224.113C472.058 224.153 472.191 224.194 472.31 224.238C472.433 224.277 472.532 224.327 472.607 224.386C472.682 224.446 472.72 224.523 472.72 224.618C472.72 224.721 472.684 224.808 472.613 224.879C472.546 224.951 472.447 225.006 472.316 225.046C472.189 225.085 472.037 225.105 471.858 225.105C471.696 225.105 471.534 225.089 471.371 225.058C471.209 225.022 471.052 224.973 470.902 224.909C470.755 224.842 470.617 224.763 470.486 224.672L470.094 225.414C470.213 225.497 470.357 225.575 470.528 225.646C470.702 225.717 470.894 225.773 471.104 225.812ZM477.37 221.647H478.332L477.501 225.806H476.538L476.879 224.101H474.996L474.655 225.806H473.686L474.518 221.647H475.487L475.159 223.287H477.042L477.37 221.647ZM478.069 225.806L478.9 221.647H480.582C481.101 221.647 481.501 221.762 481.782 221.992C482.067 222.218 482.21 222.534 482.21 222.942C482.21 223.291 482.128 223.596 481.966 223.857C481.804 224.115 481.57 224.313 481.265 224.451C480.964 224.59 480.606 224.659 480.19 224.659H479.265L479.037 225.806H478.069ZM480.231 223.875H479.42L479.709 222.431H480.463C480.709 222.431 480.899 222.481 481.033 222.58C481.168 222.675 481.235 222.824 481.235 223.026C481.235 223.303 481.146 223.515 480.968 223.661C480.794 223.804 480.548 223.875 480.231 223.875Z" fill="#456178"/>
<line x1="458" y1="251.981" x2="493.647" y2="251.981" stroke="#CFD6D9" stroke-width="0.891164"/>
<path d="M469.139 276.308C469.139 276.111 469.218 275.922 469.357 275.783C469.496 275.644 469.685 275.565 469.882 275.565H481.764C481.961 275.565 482.15 275.644 482.289 275.783C482.429 275.922 482.507 276.111 482.507 276.308V278.229C482.507 278.425 482.429 278.614 482.289 278.754L477.526 283.517C477.387 283.656 477.308 283.845 477.308 284.042V285.962L474.338 288.933V284.042C474.338 283.845 474.26 283.656 474.12 283.517L469.357 278.754C469.218 278.614 469.139 278.425 469.139 278.229V276.308Z" stroke="#456178" stroke-width="1.78233" stroke-linecap="round" stroke-linejoin="round"/>
<line x1="458" y1="311.628" x2="493.647" y2="311.628" stroke="#CFD6D9" stroke-width="0.891164"/>
<path fill-rule="evenodd" clip-rule="evenodd" d="M469.84 335.126C470.3 334.66 470.947 334.378 471.646 334.378H480C480.699 334.378 481.346 334.66 481.806 335.126C482.264 335.589 482.507 336.2 482.507 336.822V346.973C482.507 347.594 482.264 348.205 481.806 348.668C481.346 349.135 480.699 349.416 480 349.416H471.646C470.947 349.416 470.3 349.135 469.84 348.668C469.382 348.205 469.139 347.594 469.139 346.973V336.822C469.139 336.2 469.382 335.589 469.84 335.126ZM471.646 335.882C471.458 335.882 471.255 335.956 471.089 336.125C470.92 336.296 470.81 336.546 470.81 336.822V346.973C470.81 347.249 470.92 347.498 471.089 347.669C471.255 347.838 471.458 347.912 471.646 347.912H480C480.188 347.912 480.391 347.838 480.558 347.669C480.727 347.498 480.836 347.249 480.836 346.973V336.822C480.836 336.546 480.727 336.296 480.558 336.125C480.391 335.956 480.188 335.882 480 335.882H471.646ZM472.481 338.513C472.481 338.098 472.855 337.762 473.317 337.762H473.325C473.787 337.762 474.161 338.098 474.161 338.513C474.161 338.929 473.787 339.265 473.325 339.265H473.317C472.855 339.265 472.481 338.929 472.481 338.513ZM474.988 338.513C474.988 338.098 475.362 337.762 475.823 337.762H478.33C478.791 337.762 479.165 338.098 479.165 338.513C479.165 338.929 478.791 339.265 478.33 339.265H475.823C475.362 339.265 474.988 338.929 474.988 338.513ZM472.481 341.897C472.481 341.482 472.855 341.145 473.317 341.145H473.325C473.787 341.145 474.161 341.482 474.161 341.897C474.161 342.312 473.787 342.649 473.325 342.649H473.317C472.855 342.649 472.481 342.312 472.481 341.897ZM474.988 341.897C474.988 341.482 475.362 341.145 475.823 341.145H478.33C478.791 341.145 479.165 341.482 479.165 341.897C479.165 342.312 478.791 342.649 478.33 342.649H475.823C475.362 342.649 474.988 342.312 474.988 341.897ZM472.481 345.281C472.481 344.865 472.855 344.529 473.317 344.529H473.325C473.787 344.529 474.161 344.865 474.161 345.281C474.161 345.696 473.787 346.033 473.325 346.033H473.317C472.855 346.033 472.481 345.696 472.481 345.281ZM474.988 345.281C474.988 344.865 475.362 344.529 475.823 344.529H478.33C478.791 344.529 479.165 344.865 479.165 345.281C479.165 345.696 478.791 346.033 478.33 346.033H475.823C475.362 346.033 474.988 345.696 474.988 345.281Z" fill="#456178"/>
<line x1="458" y1="371.274" x2="493.647" y2="371.274" stroke="#CFD6D9" stroke-width="0.891164"/>
<path fill-rule="evenodd" clip-rule="evenodd" d="M475.491 393.452C475.7 393.348 475.946 393.348 476.155 393.452L483.582 397.166C483.833 397.291 483.992 397.549 483.992 397.83C483.992 398.111 483.833 398.368 483.582 398.494L476.155 402.207C475.946 402.312 475.7 402.312 475.491 402.207L468.065 398.494C467.813 398.368 467.654 398.111 467.654 397.83C467.654 397.549 467.813 397.291 468.065 397.166L475.491 393.452ZM470.057 397.83L475.823 400.713L481.589 397.83L475.823 394.947L470.057 397.83Z" fill="#456178"/>
<path d="M467.733 404.924C467.916 404.557 468.362 404.409 468.729 404.592L475.823 408.139L482.917 404.592C483.284 404.409 483.73 404.557 483.914 404.924C484.097 405.291 483.949 405.737 483.582 405.92L476.155 409.634C475.946 409.738 475.7 409.738 475.491 409.634L468.065 405.92C467.698 405.737 467.549 405.291 467.733 404.924Z" fill="#456178"/>
<path d="M468.729 400.879C468.362 400.695 467.916 400.844 467.733 401.211C467.549 401.578 467.698 402.024 468.065 402.207L475.491 405.92C475.7 406.025 475.946 406.025 476.155 405.92L483.582 402.207C483.949 402.024 484.097 401.578 483.914 401.211C483.73 400.844 483.284 400.695 482.917 400.879L475.823 404.426L468.729 400.879Z" fill="#456178"/>
<line x1="458" y1="430.921" x2="493.647" y2="430.921" stroke="#CFD6D9" stroke-width="0.891164"/>
<rect x="442.002" y="413.082" width="64.65" height="116.918" fill="url(#paint0_linear_6979_3658)"/>
</g>
<g filter="url(#filter0_dd_6979_3658)">
<rect x="114.219" y="360.661" width="341" height="100.679" rx="6.94684" fill="white"/>
<g clip-path="url(#clip3_6979_3658)">
<path d="M136.038 390.212V382.918H139.039C139.685 382.918 140.238 383.022 140.696 383.23C141.162 383.439 141.519 383.737 141.769 384.126C142.02 384.516 142.145 384.977 142.145 385.512C142.145 386.047 142.02 386.509 141.769 386.898C141.519 387.287 141.162 387.586 140.696 387.794C140.238 388.003 139.685 388.107 139.039 388.107H136.789L137.393 387.471V390.212H136.038ZM137.393 387.617L136.789 386.961H138.977C139.574 386.961 140.022 386.836 140.321 386.586C140.627 386.329 140.78 385.971 140.78 385.512C140.78 385.047 140.627 384.689 140.321 384.439C140.022 384.189 139.574 384.064 138.977 384.064H136.789L137.393 383.397V387.617ZM143.914 390.212V382.918H146.915C147.561 382.918 148.114 383.022 148.572 383.23C149.037 383.439 149.395 383.737 149.645 384.126C149.895 384.516 150.02 384.977 150.02 385.512C150.02 386.047 149.895 386.509 149.645 386.898C149.395 387.28 149.037 387.576 148.572 387.784C148.114 387.985 147.561 388.086 146.915 388.086H144.664L145.269 387.471V390.212H143.914ZM148.687 390.212L146.842 387.565H148.291L150.146 390.212H148.687ZM145.269 387.617L144.664 386.971H146.853C147.45 386.971 147.898 386.843 148.197 386.586C148.503 386.329 148.655 385.971 148.655 385.512C148.655 385.047 148.503 384.689 148.197 384.439C147.898 384.189 147.45 384.064 146.853 384.064H144.664L145.269 383.397V387.617ZM155.371 390.316C154.801 390.316 154.277 390.222 153.797 390.035C153.318 389.847 152.901 389.587 152.547 389.253C152.193 388.913 151.918 388.517 151.724 388.065C151.529 387.607 151.432 387.107 151.432 386.565C151.432 386.023 151.529 385.526 151.724 385.075C151.918 384.616 152.193 384.22 152.547 383.887C152.901 383.546 153.318 383.282 153.797 383.095C154.277 382.907 154.798 382.814 155.36 382.814C155.93 382.814 156.451 382.907 156.923 383.095C157.403 383.282 157.819 383.546 158.174 383.887C158.528 384.22 158.802 384.616 158.997 385.075C159.191 385.526 159.289 386.023 159.289 386.565C159.289 387.107 159.191 387.607 158.997 388.065C158.802 388.524 158.528 388.92 158.174 389.253C157.819 389.587 157.403 389.847 156.923 390.035C156.451 390.222 155.933 390.316 155.371 390.316ZM155.36 389.128C155.728 389.128 156.069 389.066 156.381 388.941C156.694 388.816 156.965 388.638 157.194 388.409C157.423 388.173 157.601 387.902 157.726 387.596C157.858 387.284 157.924 386.94 157.924 386.565C157.924 386.19 157.858 385.849 157.726 385.544C157.601 385.231 157.423 384.96 157.194 384.731C156.965 384.495 156.694 384.314 156.381 384.189C156.069 384.064 155.728 384.001 155.36 384.001C154.992 384.001 154.652 384.064 154.339 384.189C154.033 384.314 153.763 384.495 153.526 384.731C153.297 384.96 153.116 385.231 152.984 385.544C152.859 385.849 152.797 386.19 152.797 386.565C152.797 386.933 152.859 387.273 152.984 387.586C153.116 387.899 153.297 388.173 153.526 388.409C153.756 388.638 154.026 388.816 154.339 388.941C154.652 389.066 154.992 389.128 155.36 389.128ZM162.519 390.212V384.064H160.102V382.918H166.291V384.064H163.874V390.212H162.519ZM168.975 385.95H172.602V387.065H168.975V385.95ZM169.08 389.076H173.196V390.212H167.725V382.918H173.05V384.054H169.08V389.076ZM178.499 390.316C177.943 390.316 177.425 390.226 176.946 390.045C176.474 389.858 176.06 389.597 175.706 389.264C175.359 388.923 175.088 388.524 174.893 388.065C174.699 387.607 174.601 387.107 174.601 386.565C174.601 386.023 174.699 385.523 174.893 385.064C175.088 384.606 175.362 384.21 175.716 383.876C176.071 383.536 176.484 383.275 176.956 383.095C177.429 382.907 177.946 382.814 178.509 382.814C179.106 382.814 179.652 382.918 180.145 383.126C180.638 383.328 181.055 383.63 181.395 384.033L180.52 384.856C180.256 384.571 179.961 384.359 179.634 384.22C179.308 384.074 178.954 384.001 178.572 384.001C178.19 384.001 177.839 384.064 177.519 384.189C177.207 384.314 176.932 384.491 176.696 384.72C176.467 384.95 176.286 385.221 176.154 385.533C176.029 385.846 175.967 386.19 175.967 386.565C175.967 386.94 176.029 387.284 176.154 387.596C176.286 387.909 176.467 388.18 176.696 388.409C176.932 388.638 177.207 388.816 177.519 388.941C177.839 389.066 178.19 389.128 178.572 389.128C178.954 389.128 179.308 389.059 179.634 388.92C179.961 388.774 180.256 388.555 180.52 388.263L181.395 389.097C181.055 389.493 180.638 389.795 180.145 390.004C179.652 390.212 179.103 390.316 178.499 390.316ZM184.509 390.212V384.064H182.091V382.918H188.281V384.064H185.863V390.212H184.509ZM189.714 390.212V382.918H191.069V390.212H189.714ZM196.876 390.316C196.307 390.316 195.782 390.222 195.303 390.035C194.824 389.847 194.407 389.587 194.052 389.253C193.698 388.913 193.424 388.517 193.229 388.065C193.035 387.607 192.937 387.107 192.937 386.565C192.937 386.023 193.035 385.526 193.229 385.075C193.424 384.616 193.698 384.22 194.052 383.887C194.407 383.546 194.824 383.282 195.303 383.095C195.782 382.907 196.303 382.814 196.866 382.814C197.436 382.814 197.957 382.907 198.429 383.095C198.908 383.282 199.325 383.546 199.679 383.887C200.034 384.22 200.308 384.616 200.503 385.075C200.697 385.526 200.794 386.023 200.794 386.565C200.794 387.107 200.697 387.607 200.503 388.065C200.308 388.524 200.034 388.92 199.679 389.253C199.325 389.587 198.908 389.847 198.429 390.035C197.957 390.222 197.439 390.316 196.876 390.316ZM196.866 389.128C197.234 389.128 197.574 389.066 197.887 388.941C198.2 388.816 198.471 388.638 198.7 388.409C198.929 388.173 199.106 387.902 199.231 387.596C199.363 387.284 199.429 386.94 199.429 386.565C199.429 386.19 199.363 385.849 199.231 385.544C199.106 385.231 198.929 384.96 198.7 384.731C198.471 384.495 198.2 384.314 197.887 384.189C197.574 384.064 197.234 384.001 196.866 384.001C196.498 384.001 196.157 384.064 195.845 384.189C195.539 384.314 195.268 384.495 195.032 384.731C194.803 384.96 194.622 385.231 194.49 385.544C194.365 385.849 194.303 386.19 194.303 386.565C194.303 386.933 194.365 387.273 194.49 387.586C194.622 387.899 194.803 388.173 195.032 388.409C195.261 388.638 195.532 388.816 195.845 388.941C196.157 389.066 196.498 389.128 196.866 389.128ZM202.647 390.212V382.918H203.762L208.336 388.534H207.784V382.918H209.128V390.212H208.013L203.439 384.595H203.991V390.212H202.647ZM214.796 390.212V382.918H216.151V389.066H219.965V390.212H214.796ZM222.702 385.95H226.328V387.065H222.702V385.95ZM222.806 389.076H226.922V390.212H221.451V382.918H226.776V384.054H222.806V389.076ZM230.904 390.212L227.715 382.918H229.185L232.029 389.514H231.185L234.061 382.918H235.416L232.238 390.212H230.904ZM237.853 385.95H241.479V387.065H237.853V385.95ZM237.957 389.076H242.073V390.212H236.602V382.918H241.927V384.054H237.957V389.076ZM244 390.212V382.918H245.355V389.066H249.168V390.212H244Z" fill="#002848"/>
<g clip-path="url(#clip4_6979_3658)">
<path d="M425.695 385.988C426.094 385.988 426.418 386.312 426.418 386.712V389.606C426.418 390.006 426.094 390.33 425.695 390.33C425.295 390.33 424.971 390.006 424.971 389.606V386.712C424.971 386.312 425.295 385.988 425.695 385.988Z" fill="#456178"/>
<path d="M425.695 383.094C425.295 383.094 424.971 383.418 424.971 383.817C424.971 384.217 425.295 384.541 425.695 384.541H425.702C426.101 384.541 426.425 384.217 426.425 383.817C426.425 383.418 426.101 383.094 425.702 383.094H425.695Z" fill="#456178"/>
<path fill-rule="evenodd" clip-rule="evenodd" d="M417.735 386.712C417.735 382.316 421.298 378.752 425.695 378.752C430.091 378.752 433.654 382.316 433.654 386.712C433.654 391.108 430.091 394.672 425.695 394.672C421.298 394.672 417.735 391.108 417.735 386.712ZM425.695 380.199C422.098 380.199 419.182 383.115 419.182 386.712C419.182 390.309 422.098 393.225 425.695 393.225C429.291 393.225 432.207 390.309 432.207 386.712C432.207 383.115 429.291 380.199 425.695 380.199Z" fill="#456178"/>
</g>
<path d="M135.701 424.815V423.634L140.651 418.859C141.091 418.442 141.415 418.077 141.624 417.764C141.844 417.44 141.988 417.145 142.058 416.879C142.139 416.601 142.179 416.334 142.179 416.08C142.179 415.455 141.959 414.962 141.519 414.604C141.079 414.245 140.437 414.065 139.592 414.065C138.943 414.065 138.359 414.175 137.838 414.395C137.317 414.604 136.865 414.934 136.483 415.385L135.302 414.36C135.765 413.77 136.385 413.318 137.16 413.006C137.948 412.682 138.81 412.52 139.748 412.52C140.593 412.52 141.328 412.658 141.954 412.936C142.579 413.203 143.059 413.59 143.395 414.1C143.742 414.609 143.916 415.211 143.916 415.906C143.916 416.3 143.864 416.688 143.76 417.07C143.656 417.452 143.459 417.857 143.169 418.285C142.88 418.714 142.463 419.194 141.919 419.727L137.508 423.982L137.091 423.304H144.437V424.815H135.701ZM147.354 424.92C147.03 424.92 146.752 424.81 146.521 424.59C146.289 424.358 146.174 424.069 146.174 423.721C146.174 423.374 146.289 423.09 146.521 422.87C146.752 422.65 147.03 422.54 147.354 422.54C147.667 422.54 147.933 422.65 148.153 422.87C148.385 423.09 148.501 423.374 148.501 423.721C148.501 424.069 148.385 424.358 148.153 424.59C147.933 424.81 147.667 424.92 147.354 424.92ZM150.295 424.815V423.634L155.245 418.859C155.685 418.442 156.009 418.077 156.217 417.764C156.437 417.44 156.582 417.145 156.652 416.879C156.733 416.601 156.773 416.334 156.773 416.08C156.773 415.455 156.553 414.962 156.113 414.604C155.673 414.245 155.031 414.065 154.185 414.065C153.537 414.065 152.952 414.175 152.431 414.395C151.91 414.604 151.459 414.934 151.077 415.385L149.896 414.36C150.359 413.77 150.978 413.318 151.754 413.006C152.541 412.682 153.404 412.52 154.342 412.52C155.187 412.52 155.922 412.658 156.547 412.936C157.173 413.203 157.653 413.59 157.989 414.1C158.336 414.609 158.51 415.211 158.51 415.906C158.51 416.3 158.458 416.688 158.354 417.07C158.249 417.452 158.053 417.857 157.763 418.285C157.474 418.714 157.057 419.194 156.513 419.727L152.101 423.982L151.685 423.304H159.031V424.815H150.295ZM162.682 424.815V413.353L163.429 414.169H159.938V412.658H164.401V424.815H162.682Z" fill="#002848"/>
<path d="M170.721 423.342L176.532 414.832H177.468L171.657 423.342H170.721ZM171.402 419.403C171.013 419.403 170.668 419.306 170.368 419.111C170.069 418.917 169.833 418.645 169.663 418.297C169.501 417.948 169.42 417.543 169.42 417.081C169.42 416.619 169.501 416.214 169.663 415.865C169.833 415.517 170.069 415.245 170.368 415.051C170.668 414.856 171.013 414.759 171.402 414.759C171.799 414.759 172.143 414.856 172.435 415.051C172.735 415.245 172.966 415.517 173.128 415.865C173.29 416.214 173.371 416.619 173.371 417.081C173.371 417.543 173.29 417.948 173.128 418.297C172.966 418.645 172.735 418.917 172.435 419.111C172.143 419.306 171.799 419.403 171.402 419.403ZM171.402 418.71C171.775 418.71 172.066 418.568 172.277 418.284C172.488 417.993 172.593 417.592 172.593 417.081C172.593 416.57 172.488 416.173 172.277 415.89C172.066 415.598 171.775 415.452 171.402 415.452C171.037 415.452 170.745 415.598 170.526 415.89C170.316 416.173 170.21 416.57 170.21 417.081C170.21 417.583 170.316 417.981 170.526 418.272C170.745 418.564 171.037 418.71 171.402 418.71ZM176.787 423.415C176.398 423.415 176.054 423.317 175.754 423.123C175.454 422.928 175.223 422.657 175.061 422.308C174.899 421.96 174.818 421.555 174.818 421.093C174.818 420.631 174.899 420.226 175.061 419.877C175.223 419.529 175.454 419.257 175.754 419.063C176.054 418.868 176.398 418.771 176.787 418.771C177.184 418.771 177.529 418.868 177.821 419.063C178.12 419.257 178.351 419.529 178.514 419.877C178.684 420.226 178.769 420.631 178.769 421.093C178.769 421.555 178.684 421.96 178.514 422.308C178.351 422.657 178.12 422.928 177.821 423.123C177.529 423.317 177.184 423.415 176.787 423.415ZM176.787 422.722C177.152 422.722 177.44 422.58 177.65 422.296C177.869 422.005 177.979 421.603 177.979 421.093C177.979 420.59 177.869 420.193 177.65 419.901C177.44 419.61 177.152 419.464 176.787 419.464C176.423 419.464 176.131 419.61 175.912 419.901C175.701 420.185 175.596 420.582 175.596 421.093C175.596 421.603 175.701 422.005 175.912 422.296C176.131 422.58 176.423 422.722 176.787 422.722Z" fill="#002848"/>
<rect x="135.059" y="435.289" width="299.319" height="5.21013" rx="2.60507" fill="#F2F2F2"/>
<rect x="135.059" y="435.289" width="6.07849" height="5.21013" rx="2.60507" fill="#D94801"/>
</g>
</g>
<g filter="url(#filter1_dd_6979_3658)">
<rect x="52.7478" y="170.953" width="341" height="140.782" rx="6.94684" fill="white"/>
<path d="M77.944 198.425C77.3883 198.425 76.8708 198.334 76.3914 198.154C75.919 197.966 75.5057 197.706 75.1514 197.372C74.8041 197.032 74.5331 196.632 74.3386 196.174C74.1441 195.715 74.0469 195.215 74.0469 194.673C74.0469 194.131 74.1441 193.631 74.3386 193.173C74.5331 192.714 74.8075 192.318 75.1618 191.985C75.5161 191.644 75.9295 191.384 76.4019 191.203C76.8742 191.016 77.3918 190.922 77.9545 190.922C78.5519 190.922 79.0972 191.026 79.5905 191.235C80.0837 191.436 80.5005 191.738 80.8409 192.141L79.9656 192.964C79.7016 192.679 79.4064 192.468 79.0799 192.329C78.7534 192.183 78.3991 192.11 78.017 192.11C77.6349 192.11 77.2841 192.172 76.9645 192.297C76.6519 192.422 76.3775 192.6 76.1413 192.829C75.9121 193.058 75.7315 193.329 75.5995 193.642C75.4744 193.954 75.4119 194.298 75.4119 194.673C75.4119 195.048 75.4744 195.392 75.5995 195.705C75.7315 196.017 75.9121 196.288 76.1413 196.518C76.3775 196.747 76.6519 196.924 76.9645 197.049C77.2841 197.174 77.6349 197.237 78.017 197.237C78.3991 197.237 78.7534 197.167 79.0799 197.028C79.4064 196.882 79.7016 196.663 79.9656 196.372L80.8409 197.205C80.5005 197.601 80.0837 197.904 79.5905 198.112C79.0972 198.32 78.5484 198.425 77.944 198.425ZM85.682 198.425C84.6816 198.425 83.8967 198.143 83.327 197.58C82.7643 197.018 82.483 196.205 82.483 195.142V191.026H83.8376V195.09C83.8376 195.84 83.9974 196.386 84.3169 196.726C84.6434 197.066 85.1019 197.237 85.6924 197.237C86.2829 197.237 86.7379 197.066 87.0575 196.726C87.377 196.386 87.5368 195.84 87.5368 195.09V191.026H88.8706V195.142C88.8706 196.205 88.5858 197.018 88.0161 197.58C87.4534 198.143 86.6754 198.425 85.682 198.425ZM91.1845 198.32V191.026H94.1856C94.8316 191.026 95.3839 191.13 95.8424 191.339C96.3078 191.547 96.6656 191.846 96.9157 192.235C97.1658 192.624 97.2908 193.086 97.2908 193.621C97.2908 194.156 97.1658 194.618 96.9157 195.007C96.6656 195.389 96.3078 195.684 95.8424 195.892C95.3839 196.094 94.8316 196.195 94.1856 196.195H91.9348L92.5392 195.58V198.32H91.1845ZM95.957 198.32L94.1126 195.674H95.5611L97.4159 198.32H95.957ZM92.5392 195.726L91.9348 195.08H94.1231C94.7205 195.08 95.1686 194.951 95.4673 194.694C95.7729 194.437 95.9258 194.079 95.9258 193.621C95.9258 193.155 95.7729 192.798 95.4673 192.547C95.1686 192.297 94.7205 192.172 94.1231 192.172H91.9348L92.5392 191.505V195.726ZM99.2232 198.32V191.026H102.224C102.87 191.026 103.423 191.13 103.881 191.339C104.346 191.547 104.704 191.846 104.954 192.235C105.204 192.624 105.329 193.086 105.329 193.621C105.329 194.156 105.204 194.618 104.954 195.007C104.704 195.389 104.346 195.684 103.881 195.892C103.423 196.094 102.87 196.195 102.224 196.195H99.9735L100.578 195.58V198.32H99.2232ZM103.996 198.32L102.151 195.674H103.6L105.455 198.32H103.996ZM100.578 195.726L99.9735 195.08H102.162C102.759 195.08 103.207 194.951 103.506 194.694C103.812 194.437 103.964 194.079 103.964 193.621C103.964 193.155 103.812 192.798 103.506 192.547C103.207 192.297 102.759 192.172 102.162 192.172H99.9735L100.578 191.505V195.726ZM108.512 194.058H112.139V195.173H108.512V194.058ZM108.617 197.185H112.733V198.32H107.262V191.026H112.587V192.162H108.617V197.185ZM114.659 198.32V191.026H115.774L120.349 196.643H119.797V191.026H121.141V198.32H120.026L115.451 192.704H116.004V198.32H114.659ZM124.992 198.32V192.172H122.574V191.026H128.764V192.172H126.346V198.32H124.992ZM135.755 198.425C135.186 198.425 134.64 198.345 134.119 198.185C133.598 198.018 133.185 197.806 132.879 197.549L133.348 196.497C133.64 196.726 134.001 196.917 134.432 197.07C134.863 197.223 135.304 197.299 135.755 197.299C136.137 197.299 136.446 197.257 136.683 197.174C136.919 197.091 137.093 196.98 137.204 196.841C137.315 196.695 137.37 196.532 137.37 196.351C137.37 196.129 137.291 195.951 137.131 195.819C136.971 195.681 136.763 195.573 136.506 195.496C136.255 195.413 135.974 195.337 135.661 195.267C135.356 195.198 135.047 195.118 134.734 195.028C134.428 194.93 134.147 194.809 133.89 194.663C133.64 194.51 133.435 194.309 133.275 194.058C133.115 193.808 133.036 193.489 133.036 193.1C133.036 192.704 133.14 192.343 133.348 192.016C133.564 191.683 133.887 191.419 134.317 191.224C134.755 191.023 135.307 190.922 135.974 190.922C136.412 190.922 136.846 190.978 137.277 191.089C137.707 191.2 138.082 191.36 138.402 191.568L137.975 192.62C137.648 192.426 137.311 192.284 136.964 192.193C136.617 192.096 136.283 192.047 135.964 192.047C135.589 192.047 135.283 192.092 135.047 192.183C134.817 192.273 134.647 192.391 134.536 192.537C134.432 192.683 134.38 192.85 134.38 193.037C134.38 193.26 134.456 193.44 134.609 193.579C134.769 193.711 134.974 193.815 135.224 193.892C135.481 193.968 135.766 194.045 136.078 194.121C136.391 194.19 136.7 194.27 137.006 194.361C137.318 194.451 137.6 194.569 137.85 194.715C138.107 194.861 138.312 195.059 138.465 195.309C138.624 195.559 138.704 195.875 138.704 196.257C138.704 196.646 138.597 197.007 138.381 197.341C138.173 197.667 137.85 197.931 137.412 198.133C136.974 198.327 136.422 198.425 135.755 198.425ZM141.842 198.32V192.172H139.425V191.026H145.614V192.172H143.197V198.32H141.842ZM145.65 198.32L148.932 191.026H150.266L153.559 198.32H152.142L149.318 191.745H149.86L147.046 198.32H145.65ZM147.161 196.632L147.525 195.569H151.464L151.829 196.632H147.161ZM156.017 198.32V192.172H153.599V191.026H159.789V192.172H157.371V198.32H156.017ZM164.226 198.425C163.226 198.425 162.441 198.143 161.871 197.58C161.309 197.018 161.027 196.205 161.027 195.142V191.026H162.382V195.09C162.382 195.84 162.542 196.386 162.861 196.726C163.188 197.066 163.646 197.237 164.237 197.237C164.827 197.237 165.282 197.066 165.602 196.726C165.921 196.386 166.081 195.84 166.081 195.09V191.026H167.415V195.142C167.415 196.205 167.13 197.018 166.56 197.58C165.998 198.143 165.22 198.425 164.226 198.425ZM171.99 198.425C171.42 198.425 170.875 198.345 170.354 198.185C169.833 198.018 169.42 197.806 169.114 197.549L169.583 196.497C169.875 196.726 170.236 196.917 170.667 197.07C171.097 197.223 171.539 197.299 171.99 197.299C172.372 197.299 172.681 197.257 172.918 197.174C173.154 197.091 173.327 196.98 173.439 196.841C173.55 196.695 173.605 196.532 173.605 196.351C173.605 196.129 173.525 195.951 173.366 195.819C173.206 195.681 172.997 195.573 172.74 195.496C172.49 195.413 172.209 195.337 171.896 195.267C171.591 195.198 171.282 195.118 170.969 195.028C170.663 194.93 170.382 194.809 170.125 194.663C169.875 194.51 169.67 194.309 169.51 194.058C169.35 193.808 169.27 193.489 169.27 193.1C169.27 192.704 169.375 192.343 169.583 192.016C169.798 191.683 170.121 191.419 170.552 191.224C170.99 191.023 171.542 190.922 172.209 190.922C172.647 190.922 173.081 190.978 173.511 191.089C173.942 191.2 174.317 191.36 174.637 191.568L174.21 192.62C173.883 192.426 173.546 192.284 173.199 192.193C172.852 192.096 172.518 192.047 172.199 192.047C171.823 192.047 171.518 192.092 171.282 192.183C171.052 192.273 170.882 192.391 170.771 192.537C170.667 192.683 170.615 192.85 170.615 193.037C170.615 193.26 170.691 193.44 170.844 193.579C171.004 193.711 171.209 193.815 171.459 193.892C171.716 193.968 172.001 194.045 172.313 194.121C172.626 194.19 172.935 194.27 173.241 194.361C173.553 194.451 173.834 194.569 174.085 194.715C174.342 194.861 174.547 195.059 174.699 195.309C174.859 195.559 174.939 195.875 174.939 196.257C174.939 196.646 174.831 197.007 174.616 197.341C174.408 197.667 174.085 197.931 173.647 198.133C173.209 198.327 172.657 198.425 171.99 198.425Z" fill="#002848"/>
<path d="M73.5884 222.161C73.5884 218.324 76.6986 215.214 80.5352 215.214H365.96C369.797 215.214 372.907 218.324 372.907 222.161V283.948C372.907 287.785 369.797 290.895 365.96 290.895H80.5352C76.6986 290.895 73.5884 287.785 73.5884 283.948V222.161Z" fill="#002848"/>
<path d="M96.235 234.912C98.2356 234.912 99.9341 235.339 101.33 236.194C102.748 237.028 103.831 238.247 104.582 239.851C105.332 241.456 105.707 243.436 105.707 245.791C105.707 248.292 105.248 250.407 104.332 252.137C103.435 253.867 102.185 255.18 100.58 256.076C98.9755 256.972 97.1103 257.42 94.9845 257.42C93.88 257.42 92.8275 257.305 91.8272 257.076C90.8268 256.847 89.962 256.493 89.2325 256.013L90.7331 252.95C91.3374 253.346 91.9939 253.627 92.7025 253.794C93.4111 253.94 94.1405 254.013 94.8907 254.013C96.954 254.013 98.5899 253.377 99.7987 252.106C101.007 250.834 101.612 248.959 101.612 246.479C101.612 246.083 101.601 245.624 101.581 245.103C101.56 244.561 101.487 244.02 101.362 243.478L102.612 244.853C102.258 245.708 101.747 246.427 101.08 247.01C100.413 247.573 99.632 248 98.7358 248.292C97.8397 248.584 96.8498 248.73 95.766 248.73C94.3489 248.73 93.0672 248.459 91.921 247.917C90.7956 247.354 89.8994 246.573 89.2325 245.572C88.5656 244.551 88.2322 243.363 88.2322 242.008C88.2322 240.55 88.5865 239.299 89.2951 238.257C90.0036 237.194 90.9623 236.371 92.1711 235.788C93.4006 235.204 94.7553 234.912 96.235 234.912ZM96.4538 238.101C95.6202 238.101 94.8803 238.257 94.2343 238.57C93.5882 238.862 93.0776 239.289 92.7025 239.851C92.3482 240.393 92.1711 241.05 92.1711 241.821C92.1711 242.967 92.567 243.874 93.359 244.541C94.1509 245.207 95.2138 245.541 96.5476 245.541C97.4229 245.541 98.194 245.385 98.8609 245.072C99.5278 244.739 100.049 244.29 100.424 243.728C100.799 243.144 100.987 242.498 100.987 241.79C100.987 241.102 100.809 240.487 100.455 239.945C100.101 239.383 99.5903 238.934 98.9234 238.601C98.2565 238.268 97.4333 238.101 96.4538 238.101ZM116.022 257.42C114.479 257.42 112.968 257.201 111.489 256.764C110.03 256.305 108.8 255.68 107.8 254.888L109.519 251.731C110.311 252.377 111.27 252.898 112.395 253.294C113.542 253.69 114.729 253.888 115.959 253.888C117.397 253.888 118.522 253.585 119.335 252.981C120.169 252.377 120.586 251.564 120.586 250.543C120.586 249.855 120.409 249.251 120.054 248.73C119.721 248.209 119.116 247.813 118.241 247.542C117.387 247.271 116.209 247.135 114.709 247.135H109.426L110.551 235.225H123.399V238.632H112.051L114.177 236.694L113.333 245.603L111.207 243.697H115.615C117.783 243.697 119.523 243.988 120.836 244.572C122.17 245.135 123.139 245.926 123.743 246.948C124.368 247.948 124.681 249.094 124.681 250.386C124.681 251.658 124.368 252.825 123.743 253.888C123.118 254.95 122.159 255.805 120.867 256.451C119.596 257.097 117.981 257.42 116.022 257.42Z" fill="white"/>
<path d="M130.501 257.107L137.972 246.166H138.894L131.423 257.107H130.501ZM131.345 252.028C130.855 252.028 130.423 251.908 130.048 251.668C129.672 251.418 129.381 251.069 129.172 250.621C128.974 250.173 128.875 249.652 128.875 249.058C128.875 248.464 128.974 247.943 129.172 247.495C129.381 247.047 129.672 246.703 130.048 246.463C130.423 246.213 130.855 246.088 131.345 246.088C131.835 246.088 132.262 246.213 132.627 246.463C133.002 246.703 133.293 247.047 133.502 247.495C133.71 247.943 133.814 248.464 133.814 249.058C133.814 249.652 133.71 250.173 133.502 250.621C133.293 251.069 133.002 251.418 132.627 251.668C132.262 251.908 131.835 252.028 131.345 252.028ZM131.345 251.324C131.855 251.324 132.262 251.126 132.564 250.73C132.877 250.324 133.033 249.766 133.033 249.058C133.033 248.349 132.877 247.797 132.564 247.401C132.262 246.995 131.855 246.791 131.345 246.791C130.824 246.791 130.412 246.995 130.11 247.401C129.808 247.797 129.657 248.349 129.657 249.058C129.657 249.766 129.808 250.324 130.11 250.73C130.412 251.126 130.824 251.324 131.345 251.324ZM138.05 257.186C137.571 257.186 137.144 257.066 136.769 256.826C136.393 256.576 136.102 256.227 135.893 255.779C135.685 255.331 135.581 254.81 135.581 254.216C135.581 253.622 135.685 253.101 135.893 252.653C136.102 252.205 136.393 251.861 136.769 251.621C137.144 251.371 137.571 251.246 138.05 251.246C138.55 251.246 138.983 251.371 139.348 251.621C139.723 251.861 140.009 252.205 140.207 252.653C140.416 253.101 140.52 253.622 140.52 254.216C140.52 254.81 140.416 255.331 140.207 255.779C140.009 256.227 139.723 256.576 139.348 256.826C138.983 257.066 138.55 257.186 138.05 257.186ZM138.05 256.482C138.561 256.482 138.967 256.284 139.269 255.888C139.582 255.482 139.738 254.924 139.738 254.216C139.738 253.507 139.582 252.955 139.269 252.559C138.967 252.153 138.561 251.949 138.05 251.949C137.54 251.949 137.128 252.153 136.815 252.559C136.513 252.955 136.362 253.507 136.362 254.216C136.362 254.924 136.513 255.482 136.815 255.888C137.128 256.284 137.54 256.482 138.05 256.482Z" fill="white"/>
<path d="M155.501 251.796C155.946 251.796 156.339 251.883 156.679 252.057C157.019 252.23 157.283 252.494 157.471 252.849C157.665 253.203 157.763 253.651 157.763 254.193V257.371H156.762V254.308C156.762 253.773 156.637 253.37 156.387 253.099C156.137 252.828 155.786 252.692 155.335 252.692C155.001 252.692 154.709 252.762 154.459 252.901C154.209 253.04 154.015 253.245 153.876 253.516C153.744 253.787 153.678 254.123 153.678 254.526V257.371H152.678V254.308C152.678 253.773 152.552 253.37 152.302 253.099C152.059 252.828 151.708 252.692 151.25 252.692C150.923 252.692 150.635 252.762 150.385 252.901C150.135 253.04 149.94 253.245 149.802 253.516C149.663 253.787 149.593 254.123 149.593 254.526V257.371H148.593V251.848H149.551V253.318L149.395 252.942C149.569 252.581 149.836 252.3 150.198 252.098C150.559 251.897 150.979 251.796 151.458 251.796C151.986 251.796 152.441 251.928 152.823 252.192C153.205 252.449 153.456 252.842 153.574 253.37L153.167 253.203C153.334 252.779 153.626 252.439 154.043 252.182C154.459 251.925 154.946 251.796 155.501 251.796ZM163.136 257.371V256.204L163.084 255.985V253.995C163.084 253.571 162.959 253.245 162.708 253.015C162.465 252.779 162.097 252.661 161.604 252.661C161.277 252.661 160.958 252.717 160.645 252.828C160.333 252.932 160.069 253.074 159.853 253.255L159.437 252.505C159.721 252.276 160.062 252.102 160.458 251.984C160.861 251.859 161.281 251.796 161.719 251.796C162.476 251.796 163.059 251.98 163.469 252.349C163.879 252.717 164.084 253.279 164.084 254.037V257.371H163.136ZM161.323 257.434C160.913 257.434 160.551 257.364 160.239 257.225C159.933 257.086 159.697 256.895 159.53 256.652C159.364 256.402 159.28 256.121 159.28 255.808C159.28 255.509 159.35 255.238 159.489 254.995C159.635 254.752 159.867 254.558 160.187 254.412C160.513 254.266 160.951 254.193 161.5 254.193H163.25V254.912H161.541C161.041 254.912 160.704 254.995 160.531 255.162C160.357 255.329 160.27 255.53 160.27 255.766C160.27 256.037 160.378 256.256 160.593 256.423C160.809 256.583 161.107 256.663 161.489 256.663C161.864 256.663 162.191 256.579 162.469 256.412C162.754 256.246 162.959 256.003 163.084 255.683L163.282 256.371C163.15 256.697 162.917 256.958 162.583 257.152C162.25 257.34 161.83 257.434 161.323 257.434ZM168.967 257.434C168.509 257.434 168.089 257.329 167.707 257.121C167.332 256.906 167.029 256.59 166.8 256.173C166.578 255.756 166.467 255.235 166.467 254.61C166.467 253.985 166.574 253.463 166.79 253.047C167.012 252.63 167.311 252.317 167.686 252.109C168.068 251.9 168.495 251.796 168.967 251.796C169.509 251.796 169.989 251.914 170.405 252.151C170.822 252.387 171.152 252.717 171.395 253.14C171.639 253.557 171.76 254.047 171.76 254.61C171.76 255.172 171.639 255.666 171.395 256.089C171.152 256.513 170.822 256.843 170.405 257.079C169.989 257.316 169.509 257.434 168.967 257.434ZM166.039 259.393V251.848H166.998V253.338L166.936 254.62L167.04 255.902V259.393H166.039ZM168.884 256.558C169.238 256.558 169.554 256.478 169.832 256.319C170.117 256.159 170.339 255.933 170.499 255.641C170.666 255.343 170.749 254.999 170.749 254.61C170.749 254.214 170.666 253.873 170.499 253.589C170.339 253.297 170.117 253.071 169.832 252.911C169.554 252.751 169.238 252.672 168.884 252.672C168.537 252.672 168.221 252.751 167.936 252.911C167.658 253.071 167.436 253.297 167.269 253.589C167.109 253.873 167.029 254.214 167.029 254.61C167.029 254.999 167.109 255.343 167.269 255.641C167.436 255.933 167.658 256.159 167.936 256.319C168.221 256.478 168.537 256.558 168.884 256.558ZM176.175 257.434C175.716 257.434 175.296 257.329 174.914 257.121C174.539 256.906 174.236 256.59 174.007 256.173C173.785 255.756 173.674 255.235 173.674 254.61C173.674 253.985 173.781 253.463 173.997 253.047C174.219 252.63 174.518 252.317 174.893 252.109C175.275 251.9 175.702 251.796 176.175 251.796C176.716 251.796 177.196 251.914 177.613 252.151C178.029 252.387 178.359 252.717 178.602 253.14C178.846 253.557 178.967 254.047 178.967 254.61C178.967 255.172 178.846 255.666 178.602 256.089C178.359 256.513 178.029 256.843 177.613 257.079C177.196 257.316 176.716 257.434 176.175 257.434ZM173.246 259.393V251.848H174.205V253.338L174.143 254.62L174.247 255.902V259.393H173.246ZM176.091 256.558C176.445 256.558 176.762 256.478 177.039 256.319C177.324 256.159 177.547 255.933 177.706 255.641C177.873 255.343 177.956 254.999 177.956 254.61C177.956 254.214 177.873 253.873 177.706 253.589C177.547 253.297 177.324 253.071 177.039 252.911C176.762 252.751 176.445 252.672 176.091 252.672C175.744 252.672 175.428 252.751 175.143 252.911C174.865 253.071 174.643 253.297 174.476 253.589C174.316 253.873 174.236 254.214 174.236 254.61C174.236 254.999 174.316 255.343 174.476 255.641C174.643 255.933 174.865 256.159 175.143 256.319C175.428 256.478 175.744 256.558 176.091 256.558ZM182.913 257.434C182.322 257.434 181.801 257.312 181.35 257.069C180.905 256.826 180.558 256.492 180.308 256.069C180.065 255.645 179.943 255.159 179.943 254.61C179.943 254.061 180.061 253.575 180.297 253.151C180.54 252.727 180.87 252.397 181.287 252.161C181.711 251.918 182.187 251.796 182.715 251.796C183.25 251.796 183.722 251.914 184.132 252.151C184.542 252.387 184.861 252.72 185.091 253.151C185.327 253.575 185.445 254.071 185.445 254.641C185.445 254.683 185.441 254.731 185.434 254.787C185.434 254.842 185.431 254.895 185.424 254.943H180.724V254.224H184.903L184.497 254.474C184.504 254.12 184.431 253.804 184.278 253.526C184.125 253.248 183.913 253.033 183.642 252.88C183.378 252.72 183.069 252.64 182.715 252.64C182.367 252.64 182.058 252.72 181.787 252.88C181.516 253.033 181.305 253.252 181.152 253.536C180.999 253.814 180.922 254.134 180.922 254.495V254.662C180.922 255.03 181.006 255.36 181.173 255.652C181.346 255.937 181.586 256.159 181.892 256.319C182.197 256.478 182.548 256.558 182.944 256.558C183.27 256.558 183.566 256.503 183.83 256.392C184.101 256.28 184.337 256.114 184.538 255.891L185.091 256.537C184.84 256.829 184.528 257.052 184.153 257.204C183.785 257.357 183.371 257.434 182.913 257.434ZM189.22 257.434C188.685 257.434 188.206 257.316 187.782 257.079C187.365 256.843 187.035 256.513 186.792 256.089C186.549 255.666 186.428 255.172 186.428 254.61C186.428 254.047 186.549 253.557 186.792 253.14C187.035 252.717 187.365 252.387 187.782 252.151C188.206 251.914 188.685 251.796 189.22 251.796C189.686 251.796 190.106 251.9 190.481 252.109C190.856 252.317 191.155 252.63 191.377 253.047C191.606 253.463 191.721 253.985 191.721 254.61C191.721 255.235 191.61 255.756 191.388 256.173C191.172 256.59 190.877 256.906 190.502 257.121C190.127 257.329 189.7 257.434 189.22 257.434ZM189.304 256.558C189.651 256.558 189.963 256.478 190.241 256.319C190.526 256.159 190.748 255.933 190.908 255.641C191.075 255.343 191.158 254.999 191.158 254.61C191.158 254.214 191.075 253.873 190.908 253.589C190.748 253.297 190.526 253.071 190.241 252.911C189.963 252.751 189.651 252.672 189.304 252.672C188.949 252.672 188.633 252.751 188.355 252.911C188.077 253.071 187.855 253.297 187.688 253.589C187.522 253.873 187.438 254.214 187.438 254.61C187.438 254.999 187.522 255.343 187.688 255.641C187.855 255.933 188.077 256.159 188.355 256.319C188.633 256.478 188.949 256.558 189.304 256.558ZM191.19 257.371V255.881L191.252 254.599L191.148 253.318V249.639H192.148V257.371H191.19ZM198.632 257.434C198.173 257.434 197.736 257.371 197.319 257.246C196.909 257.121 196.586 256.968 196.35 256.788L196.766 255.996C197.003 256.155 197.294 256.291 197.642 256.402C197.989 256.513 198.343 256.569 198.705 256.569C199.17 256.569 199.504 256.503 199.705 256.371C199.913 256.239 200.018 256.055 200.018 255.818C200.018 255.645 199.955 255.509 199.83 255.412C199.705 255.315 199.538 255.242 199.33 255.193C199.128 255.145 198.903 255.103 198.653 255.068C198.402 255.027 198.152 254.978 197.902 254.922C197.652 254.86 197.423 254.776 197.215 254.672C197.006 254.561 196.839 254.412 196.714 254.224C196.589 254.03 196.527 253.773 196.527 253.453C196.527 253.12 196.621 252.828 196.808 252.578C196.996 252.328 197.26 252.137 197.6 252.005C197.947 251.866 198.357 251.796 198.83 251.796C199.191 251.796 199.556 251.841 199.924 251.932C200.299 252.015 200.605 252.137 200.841 252.296L200.414 253.088C200.163 252.922 199.903 252.807 199.632 252.744C199.361 252.682 199.09 252.651 198.819 252.651C198.382 252.651 198.055 252.724 197.84 252.87C197.624 253.008 197.517 253.189 197.517 253.411C197.517 253.599 197.579 253.745 197.704 253.849C197.836 253.946 198.003 254.023 198.204 254.078C198.413 254.134 198.642 254.182 198.892 254.224C199.142 254.259 199.392 254.308 199.642 254.37C199.893 254.426 200.118 254.506 200.32 254.61C200.528 254.714 200.695 254.86 200.82 255.047C200.952 255.235 201.018 255.485 201.018 255.798C201.018 256.131 200.921 256.419 200.726 256.663C200.532 256.906 200.257 257.097 199.903 257.236C199.549 257.368 199.125 257.434 198.632 257.434ZM204.696 257.434C204.224 257.434 203.807 257.347 203.446 257.173C203.091 256.999 202.813 256.735 202.612 256.381C202.417 256.02 202.32 255.568 202.32 255.027V251.848H203.321V254.912C203.321 255.454 203.449 255.86 203.706 256.131C203.97 256.402 204.338 256.537 204.811 256.537C205.158 256.537 205.46 256.468 205.717 256.329C205.974 256.183 206.172 255.975 206.311 255.704C206.45 255.426 206.52 255.093 206.52 254.704V251.848H207.52V257.371H206.572V255.881L206.728 256.277C206.547 256.645 206.276 256.93 205.915 257.131C205.554 257.333 205.148 257.434 204.696 257.434ZM209.529 257.371V251.848H210.487V253.349L210.393 252.974C210.546 252.592 210.803 252.3 211.165 252.098C211.526 251.897 211.97 251.796 212.498 251.796V252.765C212.457 252.758 212.415 252.755 212.373 252.755C212.339 252.755 212.304 252.755 212.269 252.755C211.734 252.755 211.31 252.915 210.998 253.234C210.685 253.554 210.529 254.016 210.529 254.62V257.371H209.529ZM214.053 257.371V251.359C214.053 250.817 214.209 250.386 214.521 250.066C214.841 249.74 215.293 249.577 215.876 249.577C216.091 249.577 216.296 249.605 216.491 249.66C216.692 249.709 216.863 249.789 217.001 249.9L216.699 250.66C216.595 250.577 216.477 250.515 216.345 250.473C216.213 250.424 216.074 250.4 215.928 250.4C215.636 250.4 215.414 250.483 215.261 250.65C215.108 250.81 215.032 251.049 215.032 251.369V252.109L215.053 252.567V257.371H214.053ZM213.115 252.672V251.848H216.637V252.672H213.115ZM221.011 257.371V256.204L220.959 255.985V253.995C220.959 253.571 220.834 253.245 220.584 253.015C220.341 252.779 219.972 252.661 219.479 252.661C219.153 252.661 218.833 252.717 218.52 252.828C218.208 252.932 217.944 253.074 217.729 253.255L217.312 252.505C217.597 252.276 217.937 252.102 218.333 251.984C218.736 251.859 219.156 251.796 219.594 251.796C220.351 251.796 220.935 251.98 221.344 252.349C221.754 252.717 221.959 253.279 221.959 254.037V257.371H221.011ZM219.198 257.434C218.788 257.434 218.427 257.364 218.114 257.225C217.808 257.086 217.572 256.895 217.406 256.652C217.239 256.402 217.155 256.121 217.155 255.808C217.155 255.509 217.225 255.238 217.364 254.995C217.51 254.752 217.742 254.558 218.062 254.412C218.388 254.266 218.826 254.193 219.375 254.193H221.126V254.912H219.417C218.916 254.912 218.58 254.995 218.406 255.162C218.232 255.329 218.145 255.53 218.145 255.766C218.145 256.037 218.253 256.256 218.468 256.423C218.684 256.583 218.982 256.663 219.365 256.663C219.74 256.663 220.066 256.579 220.344 256.412C220.629 256.246 220.834 256.003 220.959 255.683L221.157 256.371C221.025 256.697 220.792 256.958 220.459 257.152C220.125 257.34 219.705 257.434 219.198 257.434ZM226.322 257.434C225.759 257.434 225.255 257.312 224.811 257.069C224.373 256.826 224.029 256.492 223.779 256.069C223.529 255.645 223.404 255.159 223.404 254.61C223.404 254.061 223.529 253.575 223.779 253.151C224.029 252.727 224.373 252.397 224.811 252.161C225.255 251.918 225.759 251.796 226.322 251.796C226.822 251.796 227.266 251.897 227.655 252.098C228.051 252.293 228.357 252.585 228.572 252.974L227.812 253.463C227.631 253.193 227.409 252.995 227.145 252.87C226.888 252.738 226.61 252.672 226.311 252.672C225.95 252.672 225.627 252.751 225.342 252.911C225.057 253.071 224.832 253.297 224.665 253.589C224.498 253.873 224.415 254.214 224.415 254.61C224.415 255.006 224.498 255.35 224.665 255.641C224.832 255.933 225.057 256.159 225.342 256.319C225.627 256.478 225.95 256.558 226.311 256.558C226.61 256.558 226.888 256.496 227.145 256.371C227.409 256.239 227.631 256.037 227.812 255.766L228.572 256.246C228.357 256.628 228.051 256.923 227.655 257.131C227.266 257.333 226.822 257.434 226.322 257.434ZM232.35 257.434C231.759 257.434 231.238 257.312 230.787 257.069C230.342 256.826 229.995 256.492 229.744 256.069C229.501 255.645 229.38 255.159 229.38 254.61C229.38 254.061 229.498 253.575 229.734 253.151C229.977 252.727 230.307 252.397 230.724 252.161C231.148 251.918 231.624 251.796 232.152 251.796C232.686 251.796 233.159 251.914 233.569 252.151C233.979 252.387 234.298 252.72 234.527 253.151C234.764 253.575 234.882 254.071 234.882 254.641C234.882 254.683 234.878 254.731 234.871 254.787C234.871 254.842 234.868 254.895 234.861 254.943H230.161V254.224H234.34L233.933 254.474C233.94 254.12 233.867 253.804 233.715 253.526C233.562 253.248 233.35 253.033 233.079 252.88C232.815 252.72 232.506 252.64 232.152 252.64C231.804 252.64 231.495 252.72 231.224 252.88C230.953 253.033 230.741 253.252 230.589 253.536C230.436 253.814 230.359 254.134 230.359 254.495V254.662C230.359 255.03 230.443 255.36 230.609 255.652C230.783 255.937 231.023 256.159 231.328 256.319C231.634 256.478 231.985 256.558 232.381 256.558C232.707 256.558 233.003 256.503 233.267 256.392C233.537 256.28 233.774 256.114 233.975 255.891L234.527 256.537C234.277 256.829 233.965 257.052 233.59 257.204C233.221 257.357 232.808 257.434 232.35 257.434Z" fill="white"/>
<path fill-rule="evenodd" clip-rule="evenodd" d="M350.33 231.278C346.733 231.278 343.818 234.194 343.818 237.791C343.818 241.388 346.733 244.304 350.33 244.304C353.927 244.304 356.843 241.388 356.843 237.791C356.843 234.194 353.927 231.278 350.33 231.278ZM342.37 237.791C342.37 233.395 345.934 229.831 350.33 229.831C354.726 229.831 358.29 233.395 358.29 237.791C358.29 242.187 354.726 245.751 350.33 245.751C345.934 245.751 342.37 242.187 342.37 237.791ZM349.607 234.896C349.607 234.497 349.931 234.173 350.33 234.173H350.338C350.737 234.173 351.061 234.497 351.061 234.896C351.061 235.296 350.737 235.62 350.338 235.62H350.33C349.931 235.62 349.607 235.296 349.607 234.896ZM350.33 237.067C350.73 237.067 351.054 237.391 351.054 237.791V240.685C351.054 241.085 350.73 241.409 350.33 241.409C349.931 241.409 349.607 241.085 349.607 240.685V237.791C349.607 237.391 349.931 237.067 350.33 237.067Z" fill="white" fill-opacity="0.8"/>
<rect x="87.4822" y="270.055" width="271.531" height="8" rx="4" fill="white" fill-opacity="0.2"/>
<rect x="87.4822" y="270.055" width="250" height="8.00195" rx="4" fill="#C3DF09"/>
</g>
<defs>
<filter id="filter0_dd_6979_3658" x="82.0894" y="337.216" width="405.258" height="164.937" filterUnits="userSpaceOnUse" color-interpolation-filters="sRGB">
<feFlood flood-opacity="0" result="BackgroundImageFix"/>
<feColorMatrix in="SourceAlpha" type="matrix" values="0 0 0 0 0 0 0 0 0 0 0 0 0 0 0 0 0 0 127 0" result="hardAlpha"/>
<feMorphology radius="3.47342" operator="erode" in="SourceAlpha" result="effect1_dropShadow_6979_3658"/>
<feOffset dy="3.47342"/>
<feGaussianBlur stdDeviation="2.60507"/>
<feComposite in2="hardAlpha" operator="out"/>
<feColorMatrix type="matrix" values="0 0 0 0 0 0 0 0 0 0 0 0 0 0 0 0 0 0 0.1 0"/>
<feBlend mode="normal" in2="BackgroundImageFix" result="effect1_dropShadow_6979_3658"/>
<feColorMatrix in="SourceAlpha" type="matrix" values="0 0 0 0 0 0 0 0 0 0 0 0 0 0 0 0 0 0 127 0" result="hardAlpha"/>
<feMorphology radius="2.60507" operator="erode" in="SourceAlpha" result="effect2_dropShadow_6979_3658"/>
<feOffset dy="8.68355"/>
<feGaussianBlur stdDeviation="17.3671"/>
<feComposite in2="hardAlpha" operator="out"/>
<feColorMatrix type="matrix" values="0 0 0 0 0 0 0 0 0 0 0 0 0 0 0 0 0 0 0.1 0"/>
<feBlend mode="normal" in2="effect1_dropShadow_6979_3658" result="effect2_dropShadow_6979_3658"/>
<feBlend mode="normal" in="SourceGraphic" in2="effect2_dropShadow_6979_3658" result="shape"/>
</filter>
<filter id="filter1_dd_6979_3658" x="20.6187" y="147.508" width="405.258" height="205.041" filterUnits="userSpaceOnUse" color-interpolation-filters="sRGB">
<feFlood flood-opacity="0" result="BackgroundImageFix"/>
<feColorMatrix in="SourceAlpha" type="matrix" values="0 0 0 0 0 0 0 0 0 0 0 0 0 0 0 0 0 0 127 0" result="hardAlpha"/>
<feMorphology radius="3.47342" operator="erode" in="SourceAlpha" result="effect1_dropShadow_6979_3658"/>
<feOffset dy="3.47342"/>
<feGaussianBlur stdDeviation="2.60507"/>
<feComposite in2="hardAlpha" operator="out"/>
<feColorMatrix type="matrix" values="0 0 0 0 0 0 0 0 0 0 0 0 0 0 0 0 0 0 0.1 0"/>
<feBlend mode="normal" in2="BackgroundImageFix" result="effect1_dropShadow_6979_3658"/>
<feColorMatrix in="SourceAlpha" type="matrix" values="0 0 0 0 0 0 0 0 0 0 0 0 0 0 0 0 0 0 127 0" result="hardAlpha"/>
<feMorphology radius="2.60507" operator="erode" in="SourceAlpha" result="effect2_dropShadow_6979_3658"/>
<feOffset dy="8.68355"/>
<feGaussianBlur stdDeviation="17.3671"/>
<feComposite in2="hardAlpha" operator="out"/>
<feColorMatrix type="matrix" values="0 0 0 0 0 0 0 0 0 0 0 0 0 0 0 0 0 0 0.1 0"/>
<feBlend mode="normal" in2="effect1_dropShadow_6979_3658" result="effect2_dropShadow_6979_3658"/>
<feBlend mode="normal" in="SourceGraphic" in2="effect2_dropShadow_6979_3658" result="shape"/>
</filter>
<linearGradient id="paint0_linear_6979_3658" x1="474.327" y1="413.082" x2="474.327" y2="530" gradientUnits="userSpaceOnUse">
<stop stop-color="#002848" stop-opacity="0"/>
<stop offset="1" stop-color="#002848"/>
</linearGradient>
<clipPath id="clip0_6979_3658">
<rect x="442" y="14" width="64" height="516" rx="8" fill="white"/>
</clipPath>
<clipPath id="clip1_6979_3658">
<rect width="25.327" height="20.4968" fill="white" transform="translate(463.347 38)"/>
</clipPath>
<clipPath id="clip2_6979_3658">
<rect width="17.8233" height="17.8233" fill="white" transform="translate(466.912 118.399)"/>
</clipPath>
<clipPath id="clip3_6979_3658">
<rect width="299.319" height="62.4709" fill="white" transform="translate(135.059 378.028)"/>
</clipPath>
<clipPath id="clip4_6979_3658">
<rect width="17.3671" height="17.3671" fill="white" transform="translate(417.011 378.028)"/>
</clipPath>
</defs>
</svg>
