<svg width="688" height="800" viewBox="0 0 688 800" fill="none" xmlns="http://www.w3.org/2000/svg">
<path d="M206.858 799.32C213.325 729.652 240.897 663.041 267.447 601.189C296.721 533.22 324.633 468.989 324.633 399.66C324.633 330.331 297.062 266.1 267.447 197.791C240.897 135.939 213.325 69.6684 206.858 -0.000265165L259.618 -0.000262858C265.405 61.5121 289.913 116.567 316.124 177.06C346.418 247.069 377.394 319.456 377.394 399.66C377.394 479.864 346.078 552.251 316.124 622.26C289.913 682.753 265.405 737.808 259.618 799.32L206.858 799.32Z" fill="#214561"/>
<path d="M296.04 799.32C306.252 723.194 347.099 655.225 386.585 593.713C428.113 529.142 467.258 468.309 467.258 399.66C467.258 331.011 428.113 270.178 386.585 205.607C347.099 144.095 306.252 75.7856 296.04 -0.000261266L361.055 -0.000258424C369.225 61.5121 404.626 112.149 442.069 170.263C487.001 239.932 532.953 311.979 532.953 400C532.953 488.02 486.66 560.068 442.069 629.737C404.626 687.85 369.565 738.488 361.055 800L296.04 800L296.04 799.32Z" fill="#214561"/>
<path d="M385.223 799.32C399.179 716.058 453.982 646.389 507.084 585.216C559.844 524.724 609.201 467.29 609.201 399.66C609.201 332.03 559.504 274.596 506.743 214.103C453.642 152.931 398.839 82.9224 384.883 -0.000257383L462.492 -0.000253991C472.704 61.1722 518.317 107.391 566.312 162.787C626.221 231.775 687.832 302.804 687.832 399.66C687.832 496.516 626.221 567.884 566.312 636.533C518.317 691.928 472.704 737.808 462.492 799.32L384.883 799.32L385.223 799.32Z" fill="#214561"/>
<path d="M54.8685 797.975C61.3044 728.647 88.7415 662.362 115.162 600.812C144.293 533.175 172.069 469.257 172.069 400.267C172.069 331.277 144.632 267.359 115.162 199.384C88.7416 137.834 61.3044 71.8872 54.8686 2.55883L107.372 2.55883C113.13 63.7707 137.519 118.557 163.601 178.754C193.748 248.421 224.572 320.455 224.572 400.267C224.572 480.079 193.409 552.113 163.601 621.78C137.519 681.977 113.13 736.763 107.372 797.975L54.8685 797.975Z" fill="#214561"/>
<path d="M99.0515 2.55807C92.6156 71.8864 65.1784 138.171 38.7575 199.721C9.62673 267.359 -18.1491 331.276 -18.1491 400.266C-18.1491 469.256 9.28797 533.174 38.7575 601.149C65.1784 662.699 92.6155 728.646 99.0513 797.974L46.5482 797.974C40.7898 736.763 16.4013 681.976 -9.68093 621.779C-39.8279 552.112 -70.6523 480.078 -70.6523 400.266C-70.6523 320.454 -39.4891 248.42 -9.68087 178.754C16.4013 118.556 40.7899 63.7699 46.5483 2.55806L99.0515 2.55807Z" fill="#214561"/>
<rect x="234.445" y="798.17" width="28.2106" height="795.54" transform="rotate(-180 234.445 798.17)" fill="#214561"/>
</svg>
