<svg width="745" height="831" viewBox="0 0 745 831" fill="none" xmlns="http://www.w3.org/2000/svg">
<path fill-rule="evenodd" clip-rule="evenodd" d="M559.792 389.199C589.106 398.394 619.567 407.768 650.968 415.338C619.702 422.901 589.374 432.26 560.108 441.439C496.502 461.588 436.694 480.347 372.139 480.347C308.113 480.347 248.756 461.666 186.041 441.928L184.487 441.439C155.173 432.245 124.712 422.87 93.3108 415.301C124.577 407.738 154.905 398.379 184.171 389.199C247.777 369.051 307.585 350.292 372.14 350.292C436.166 350.292 495.523 368.973 558.237 388.71L559.792 389.199ZM744.279 436.113L744.279 430.423V394.526C688.696 390.705 638.776 374.889 584.395 357.66L584.395 357.66C582.738 357.135 581.077 356.609 579.411 356.081L577.491 355.481C512.899 335.285 446.088 314.395 372.14 314.395C297.459 314.395 230.056 335.47 164.868 356.081C163.203 356.609 161.541 357.135 159.884 357.66C105.504 374.889 55.5832 390.705 0.000356342 394.526L0.000356342 400.216L4.34458e-06 400.216L0 436.113C55.583 439.933 105.504 455.75 159.884 472.979L159.885 472.979C161.542 473.504 163.203 474.03 164.868 474.557L166.788 475.158C231.38 495.354 298.191 516.244 372.139 516.244C446.82 516.244 514.223 495.169 579.411 474.557C581.011 474.051 582.606 473.545 584.198 473.041L584.394 472.979C638.775 455.75 688.696 439.933 744.279 436.113ZM0.633433 503.417C65.5047 507.817 127.528 526.576 185.121 544.64L186.675 545.129C249.39 564.867 308.747 583.548 372.773 583.548C437.328 583.548 497.136 564.789 560.741 544.64C618.334 526.576 680.041 507.817 744.912 503.417V539.314C689.329 543.134 639.408 558.951 585.027 576.18L584.715 576.279C583.162 576.771 581.605 577.264 580.044 577.758C514.857 598.37 447.454 619.445 372.773 619.445C298.825 619.445 232.013 598.555 167.422 578.359L167.421 578.359L165.501 577.758C163.836 577.231 162.175 576.705 160.518 576.18C106.138 558.951 56.2166 543.134 0.633429 539.314L0.633433 503.417ZM0.633426 564.094C71.5171 571.042 134.806 598.833 192.083 625.698L192.17 625.739C252.262 653.978 308.882 680.586 372.773 680.586C436.664 680.586 493.283 653.979 553.375 625.739L553.463 625.698C610.739 598.833 674.345 571.042 744.912 564.094L744.912 608.329C691.964 613.467 647.669 634.438 598.529 657.704L598.457 657.738L598.359 657.784C594.398 659.66 590.405 661.55 586.373 663.448C521.502 694.018 454.416 725.284 372.456 725.284C290.756 725.284 223.835 693.986 159.155 663.736L158.539 663.448C154.865 661.718 151.223 659.996 147.608 658.286L147.569 658.268C97.9546 634.806 53.3742 613.724 0.000527443 608.329L0.000532739 564.094H0.633426ZM199.994 707.682C143.034 671.554 78.1624 634.267 0.633419 624.772L0.633413 677.344C51.701 683.538 91.1971 708.88 135.719 737.446C141.132 740.919 146.619 744.44 152.211 747.98C216.132 788.74 282.586 830.659 372.773 830.659C462.96 830.659 529.097 788.74 593.335 747.98C598.728 744.565 604.028 741.169 609.261 737.815C654.068 709.099 693.908 683.565 744.912 677.344V624.54C667.699 634.036 602.512 671.322 545.552 707.451C489.225 743.348 435.745 777.161 372.773 777.161C309.8 777.161 256.321 743.58 199.994 707.682Z" fill="#D9EEFF"/>
<path d="M744.28 327.242C679.408 322.842 617.385 304.083 559.792 286.019C496.503 266.102 436.695 247.111 372.14 247.111C307.585 247.111 247.777 265.87 184.172 286.019C126.579 304.083 64.8722 322.842 0.000958272 327.242L0.000960278 291.345C57.2775 287.408 108.542 270.733 164.869 252.901C230.056 232.289 297.459 211.214 372.14 211.214C446.821 211.214 514.224 232.52 579.412 252.901C635.739 270.733 687.003 287.408 744.28 291.345L744.28 327.242Z" fill="#D9EEFF"/>
<path d="M744.28 266.565C673.396 259.617 610.107 231.826 552.83 204.961C492.706 176.706 436.062 150.073 372.14 150.073C308.218 150.073 251.575 176.706 191.45 204.961C134.174 231.826 70.5682 259.617 0.000961663 266.565L0.000964136 222.33C57.2775 216.772 104.428 192.686 158.54 167.211C223.411 136.64 290.497 105.375 372.457 105.375C454.416 105.375 521.502 136.872 586.374 167.211C640.486 192.686 687.636 216.54 744.913 222.33L744.913 266.565H744.28Z" fill="#D9EEFF"/>
<path d="M744.28 205.887C666.751 196.392 601.879 159.105 544.919 122.976C488.592 87.0794 435.113 53.4982 372.14 53.4982C309.168 53.4982 255.689 87.311 199.361 123.208C142.401 159.337 77.2135 196.623 0.000965042 206.119L0.000967993 153.315C56.9611 146.367 99.9976 115.334 151.578 82.6791C215.816 41.9185 281.953 0 372.14 0C462.327 0 528.781 41.9185 592.702 82.6791C644.283 115.334 687.003 146.367 744.28 153.315L744.28 206.119L744.28 205.887Z" fill="#D9EEFF"/>
</svg>
