<svg width="351" height="351" viewBox="0 0 351 351" fill="none" xmlns="http://www.w3.org/2000/svg">
<g opacity="0.3">
<path d="M20.3951 187.59L7.1451 163.41" stroke="#1CD219" stroke-width="1.61729" stroke-linecap="round"/>
<path d="M24.252 139.069L19.1227 111.977" stroke="#1CD219" stroke-width="1.61729" stroke-linecap="round"/>
<path d="M42.913 94.1135L46.4066 66.7628" stroke="#1CD219" stroke-width="1.61729" stroke-linecap="round"/>
<path d="M74.5518 57.1247L86.3262 32.1922" stroke="#1CD219" stroke-width="1.61729" stroke-linecap="round"/>
<path d="M116.072 31.7233L134.975 11.6496" stroke="#1CD219" stroke-width="1.61729" stroke-linecap="round"/>
<path d="M163.412 20.3958L187.592 7.14583" stroke="#1CD219" stroke-width="1.61729" stroke-linecap="round"/>
<path d="M211.932 24.2513L239.023 19.122" stroke="#1CD219" stroke-width="1.61729" stroke-linecap="round"/>
<path d="M256.888 42.9118L284.239 46.4053" stroke="#1CD219" stroke-width="1.61729" stroke-linecap="round"/>
<path d="M293.874 74.5509L318.806 86.3253" stroke="#1CD219" stroke-width="1.61729" stroke-linecap="round"/>
<path d="M319.276 116.072L339.35 134.974" stroke="#1CD219" stroke-width="1.61729" stroke-linecap="round"/>
<path d="M330.603 163.41L343.853 187.59" stroke="#1CD219" stroke-width="1.61729" stroke-linecap="round"/>
<path d="M326.748 211.931L331.877 239.023" stroke="#1CD219" stroke-width="1.61729" stroke-linecap="round"/>
<path d="M308.087 256.887L304.593 284.237" stroke="#1CD219" stroke-width="1.61729" stroke-linecap="round"/>
<path d="M276.45 293.875L264.676 318.808" stroke="#1CD219" stroke-width="1.61729" stroke-linecap="round"/>
<path d="M234.928 319.277L216.025 339.35" stroke="#1CD219" stroke-width="1.61729" stroke-linecap="round"/>
<path d="M187.59 330.604L163.41 343.854" stroke="#1CD219" stroke-width="1.61729" stroke-linecap="round"/>
<path d="M139.07 326.749L111.979 331.878" stroke="#1CD219" stroke-width="1.61729" stroke-linecap="round"/>
<path d="M94.114 308.088L66.7633 304.595" stroke="#1CD219" stroke-width="1.61729" stroke-linecap="round"/>
<path d="M57.1262 276.449L32.1937 264.675" stroke="#1CD219" stroke-width="1.61729" stroke-linecap="round"/>
<path d="M31.7221 234.928L11.6483 216.026" stroke="#1CD219" stroke-width="1.61729" stroke-linecap="round"/>
</g>
<g opacity="0.3">
<path d="M88.9251 182.183L81.1774 168.044" stroke="#1CD219" stroke-width="1.81473" stroke-linecap="round"/>
<path d="M89.4405 163.172L84.8018 147.731" stroke="#1CD219" stroke-width="1.81473" stroke-linecap="round"/>
<path d="M93.8927 144.683L92.5657 128.615" stroke="#1CD219" stroke-width="1.81473" stroke-linecap="round"/>
<path d="M102.091 127.524L104.134 111.531" stroke="#1CD219" stroke-width="1.81473" stroke-linecap="round"/>
<path d="M113.68 112.445L119.003 97.2263" stroke="#1CD219" stroke-width="1.81473" stroke-linecap="round"/>
<path d="M128.153 100.105L136.524 86.3254" stroke="#1CD219" stroke-width="1.81473" stroke-linecap="round"/>
<path d="M144.871 91.0426L155.924 79.3049" stroke="#1CD219" stroke-width="1.81473" stroke-linecap="round"/>
<path d="M163.11 85.655L176.362 76.4718" stroke="#1CD219" stroke-width="1.81473" stroke-linecap="round"/>
<path d="M182.068 84.177L196.939 77.9496" stroke="#1CD219" stroke-width="1.81473" stroke-linecap="round"/>
<path d="M200.922 86.6733L216.763 83.6741" stroke="#1CD219" stroke-width="1.81473" stroke-linecap="round"/>
<path d="M218.845 93.035L234.964 93.3949" stroke="#1CD219" stroke-width="1.81473" stroke-linecap="round"/>
<path d="M235.051 102.984L250.743 106.687" stroke="#1CD219" stroke-width="1.81473" stroke-linecap="round"/>
<path d="M248.837 116.085L263.416 122.97" stroke="#1CD219" stroke-width="1.81473" stroke-linecap="round"/>
<path d="M259.599 131.766L272.428 141.532" stroke="#1CD219" stroke-width="1.81473" stroke-linecap="round"/>
<path d="M266.861 149.342L277.379 161.561" stroke="#1CD219" stroke-width="1.81473" stroke-linecap="round"/>
<path d="M270.313 168.044L278.061 182.183" stroke="#1CD219" stroke-width="1.81473" stroke-linecap="round"/>
<path d="M269.802 187.055L274.44 202.496" stroke="#1CD219" stroke-width="1.81473" stroke-linecap="round"/>
<path d="M265.348 205.544L266.675 221.612" stroke="#1CD219" stroke-width="1.81473" stroke-linecap="round"/>
<path d="M257.147 222.703L255.104 238.696" stroke="#1CD219" stroke-width="1.81473" stroke-linecap="round"/>
<path d="M245.56 237.782L240.237 253.001" stroke="#1CD219" stroke-width="1.81473" stroke-linecap="round"/>
<path d="M231.091 250.122L222.72 263.901" stroke="#1CD219" stroke-width="1.81473" stroke-linecap="round"/>
<path d="M214.37 259.184L203.317 270.922" stroke="#1CD219" stroke-width="1.81473" stroke-linecap="round"/>
<path d="M196.132 264.572L182.88 273.755" stroke="#1CD219" stroke-width="1.81473" stroke-linecap="round"/>
<path d="M177.171 266.05L162.299 272.277" stroke="#1CD219" stroke-width="1.81473" stroke-linecap="round"/>
<path d="M158.316 263.553L142.475 266.553" stroke="#1CD219" stroke-width="1.81473" stroke-linecap="round"/>
<path d="M140.397 257.192L124.278 256.832" stroke="#1CD219" stroke-width="1.81473" stroke-linecap="round"/>
<path d="M124.189 247.243L108.497 243.54" stroke="#1CD219" stroke-width="1.81473" stroke-linecap="round"/>
<path d="M110.404 234.142L95.8247 227.257" stroke="#1CD219" stroke-width="1.81473" stroke-linecap="round"/>
<path d="M99.6428 218.46L86.814 208.695" stroke="#1CD219" stroke-width="1.81473" stroke-linecap="round"/>
<path d="M92.3774 200.885L81.8593 188.665" stroke="#1CD219" stroke-width="1.81473" stroke-linecap="round"/>
</g>
<path d="M154.065 183.237L167.911 197.082L204.936 159.699" stroke="#1CD219" stroke-width="2" stroke-linecap="round" stroke-linejoin="round"/>
</svg>
