<svg width="379" height="550" viewBox="0 0 379 550" fill="none" xmlns="http://www.w3.org/2000/svg">
<path fill-rule="evenodd" clip-rule="evenodd" d="M193.792 389.199C223.106 398.393 253.567 407.768 284.968 415.337C253.702 422.9 223.374 432.259 194.108 441.439C130.502 461.587 70.6941 480.347 6.13931 480.347C-57.8867 480.347 -117.244 461.666 -179.958 441.928L-181.513 441.439C-210.827 432.244 -241.288 422.87 -272.689 415.3C-241.423 407.737 -211.095 398.378 -181.829 389.199C-118.223 369.05 -58.4151 350.291 6.13968 350.291C70.1658 350.291 129.523 368.972 192.237 388.71L193.792 389.199ZM378.279 436.112L378.279 430.423V394.526C322.696 390.705 272.775 374.889 218.394 357.659L218.196 357.597C216.605 357.093 215.01 356.587 213.411 356.081L211.491 355.481C146.9 335.284 80.0877 314.394 6.13968 314.394C-68.5413 314.394 -135.944 335.469 -201.132 356.081C-202.788 356.605 -204.44 357.129 -206.088 357.651L-206.115 357.66C-260.496 374.889 -310.417 390.705 -366 394.526V400.215L-366 400.215L-366 436.112C-310.417 439.933 -260.496 455.749 -206.115 472.978L-206.089 472.987C-204.441 473.509 -202.789 474.032 -201.132 474.557L-199.212 475.157C-134.621 495.353 -67.8087 516.244 6.13931 516.244C80.8203 516.244 148.223 495.169 213.411 474.557C215.076 474.029 216.738 473.503 218.395 472.978C272.775 455.749 322.696 439.933 378.279 436.112ZM-365.367 503.416C-300.495 507.816 -238.472 526.575 -180.879 544.64L-179.325 545.129C-116.61 564.867 -57.2533 583.548 6.77277 583.548C71.3275 583.548 131.136 564.788 194.741 544.64C252.334 526.575 314.041 507.816 378.912 503.416V539.313C323.329 543.134 273.408 558.95 219.028 576.179L216.048 577.123L214.044 577.758C148.857 598.37 81.4538 619.445 6.77277 619.445C-67.1751 619.445 -133.987 598.554 -198.578 578.358L-200.499 577.758L-203.275 576.879L-205.365 576.216L-205.456 576.188L-205.482 576.179L-205.482 576.179C-259.863 558.95 -309.784 543.134 -365.367 539.313L-365.367 503.416ZM-365.367 564.094C-294.483 571.042 -231.194 598.833 -173.917 625.698L-173.83 625.739C-113.738 653.978 -57.1181 680.586 6.77274 680.586C70.6635 680.586 127.283 653.978 187.375 625.739L187.463 625.698C244.739 598.833 308.345 571.042 378.912 564.094L378.912 608.328C325.964 613.466 281.669 634.438 232.529 657.703L232.524 657.705L232.424 657.753C228.441 659.639 224.427 661.539 220.373 663.448C155.502 694.018 88.4155 725.283 6.4563 725.283C-75.2437 725.283 -142.165 693.985 -206.845 663.736L-207.461 663.448C-211.148 661.712 -214.803 659.983 -218.431 658.268C-268.045 634.805 -312.626 613.723 -365.999 608.328L-365.999 564.094H-365.367ZM-166.006 707.682C-222.966 671.553 -287.838 634.267 -365.367 624.771L-365.367 677.343C-314.299 683.538 -274.803 708.879 -230.281 737.446L-230.281 737.446C-224.868 740.919 -219.381 744.44 -213.789 747.979C-149.868 788.74 -83.4141 830.659 6.77274 830.659C96.9595 830.659 163.097 788.74 227.335 747.979C232.723 744.569 238.017 741.175 243.244 737.826L243.261 737.815C288.068 709.098 327.908 683.565 378.912 677.343V624.54C301.699 634.035 236.512 671.322 179.552 707.45C123.225 743.348 69.7453 777.16 6.77274 777.16C-56.1998 777.16 -109.679 743.579 -166.006 707.682Z" fill="#D9EEFF"/>
<path d="M378.28 327.242C313.408 322.842 251.385 304.083 193.792 286.019C130.503 266.102 70.6951 247.111 6.14028 247.111C-58.4145 247.111 -118.223 265.87 -181.828 286.019C-239.421 304.083 -301.128 322.842 -365.999 327.242L-365.999 291.345C-308.723 287.408 -257.458 270.733 -201.131 252.901C-135.944 232.289 -68.5407 211.214 6.14028 211.214C80.8213 211.214 148.224 232.52 213.412 252.901C269.739 270.733 321.003 287.408 378.28 291.345L378.28 327.242Z" fill="#D9EEFF"/>
<path d="M378.28 266.565C307.396 259.617 244.107 231.826 186.83 204.961C126.706 176.706 70.0622 150.073 6.14028 150.073C-57.7816 150.073 -114.425 176.706 -174.55 204.961C-231.826 231.826 -295.432 259.617 -365.999 266.565L-365.999 222.33C-308.722 216.772 -261.572 192.686 -207.46 167.211C-142.589 136.64 -75.5025 105.375 6.45675 105.375C88.416 105.375 155.502 136.872 220.374 167.211C274.486 192.686 321.636 216.54 378.913 222.33L378.913 266.565H378.28Z" fill="#D9EEFF"/>
<path d="M378.28 205.887C300.751 196.392 235.879 159.105 178.919 122.976C122.592 87.0794 69.1129 53.4982 6.14029 53.4982C-56.8322 53.4982 -110.311 87.311 -166.639 123.208C-223.599 159.337 -288.786 196.623 -365.999 206.119L-365.999 153.315C-309.039 146.367 -266.002 115.334 -214.422 82.6791C-150.184 41.9185 -84.0465 0 6.14029 0C96.3271 0 162.781 41.9185 226.702 82.6791C278.283 115.334 321.003 146.367 378.28 153.315L378.28 206.119L378.28 205.887Z" fill="#D9EEFF"/>
</svg>
