<?xml version="1.0" standalone="no"?>
<!DOCTYPE svg PUBLIC "-//W3C//DTD SVG 20010904//EN"
 "http://www.w3.org/TR/2001/REC-SVG-20010904/DTD/svg10.dtd">
<svg version="1.0" xmlns="http://www.w3.org/2000/svg"
 width="384.000000pt" height="384.000000pt" viewBox="0 0 384.000000 384.000000"
 preserveAspectRatio="xMidYMid meet">
<metadata>
Created by potrace 1.14, written by Peter Selinger 2001-2017
</metadata>
<g transform="translate(0.000000,384.000000) scale(0.100000,-0.100000)"
fill="#000000" stroke="none">
<path d="M1790 2953 c-109 -19 -272 -82 -365 -142 -46 -30 -178 -123 -185
-131 -3 -3 -30 -25 -60 -50 -30 -25 -66 -55 -80 -67 -14 -12 -36 -31 -50 -43
-14 -12 -49 -43 -79 -68 -30 -26 -59 -52 -65 -57 -105 -99 -290 -213 -381
-236 -27 -6 -54 -15 -60 -20 -10 -7 -12 -265 -3 -275 10 -10 172 39 255 78 48
22 244 136 253 147 3 3 39 31 80 62 41 31 85 65 96 75 12 11 45 39 74 63 29
25 58 50 64 55 6 6 36 31 66 56 30 25 57 47 60 51 13 14 122 90 185 127 197
117 372 126 575 30 36 -17 79 -42 97 -54 17 -13 35 -24 38 -24 7 0 147 -111
211 -167 337 -293 493 -394 723 -470 88 -28 107 -32 116 -20 10 14 12 234 2
260 -3 8 -22 17 -43 20 -100 16 -279 132 -474 307 -350 312 -544 434 -771 486
-31 7 -247 13 -279 7z"/>
<path d="M1805 2393 c-211 -25 -392 -108 -783 -359 -251 -161 -403 -235 -516
-251 -23 -3 -43 -7 -45 -9 -7 -6 -4 -224 3 -231 3 -4 41 2 84 11 195 46 372
131 662 316 365 233 519 293 725 286 197 -7 325 -63 735 -323 136 -86 266
-157 373 -202 97 -42 254 -88 297 -87 l25 1 0 113 1 113 -26 5 c-167 36 -284
93 -570 277 -388 251 -594 335 -830 341 -58 1 -118 1 -135 -1z"/>
<path d="M1815 1829 c-214 -21 -332 -57 -747 -232 -292 -124 -428 -169 -552
-183 -31 -4 -56 -10 -57 -13 -1 -10 -1 -134 0 -164 1 -16 4 -26 9 -24 4 3 32
8 62 11 137 16 348 84 610 196 407 173 535 210 745 215 223 6 341 -25 747
-196 220 -93 461 -180 533 -193 154 -27 195 -32 196 -22 1 15 1 148 0 166 -1
12 -22 19 -80 28 -120 19 -281 74 -536 182 -411 175 -566 219 -815 233 -25 2
-76 0 -115 -4z"/>
<path d="M1818 1255 c-2 -1 -43 -5 -93 -9 -106 -7 -301 -38 -460 -72 -38 -9
-81 -18 -95 -20 -14 -3 -33 -7 -42 -10 -10 -3 -30 -7 -45 -10 -16 -2 -57 -11
-93 -19 -106 -23 -222 -44 -280 -51 -30 -3 -57 -7 -60 -9 -3 -2 -46 -7 -95
-10 -50 -4 -92 -9 -94 -11 -2 -2 -4 -34 -4 -71 l0 -68 44 1 c137 4 306 31 649
104 222 48 306 64 385 75 22 3 46 8 52 10 78 26 545 26 643 0 8 -2 35 -7 60
-10 25 -3 90 -15 145 -26 55 -12 109 -23 120 -25 11 -2 94 -19 185 -38 172
-36 252 -52 308 -61 17 -3 44 -7 60 -9 33 -6 138 -16 207 -21 l50 -4 -1 70
c-1 38 -3 71 -5 73 -2 2 -42 7 -89 10 -47 3 -96 8 -110 10 -14 3 -41 7 -60 10
-48 8 -92 16 -280 52 -14 3 -54 12 -90 20 -343 79 -574 113 -788 118 -67 1
-123 2 -124 1z"/>
</g>
</svg>
