<svg width="24" height="24" viewBox="0 0 24 24" fill="none" xmlns="http://www.w3.org/2000/svg">
<g id="icon/24px/expand-sidebar-L0">
<path id="Shape" fill-rule="evenodd" clip-rule="evenodd" d="M4.3 3.2C3.69249 3.2 3.2 3.69249 3.2 4.3V19.7C3.2 20.3075 3.69249 20.8 4.3 20.8H6.6V3.2H4.3ZM4.3 1C2.47746 1 1 2.47746 1 4.3V19.7C1 21.5225 2.47746 23 4.3 23H19.7C21.5225 23 23 21.5225 23 19.7V4.3C23 2.47746 21.5225 1 19.7 1H4.3ZM8.8 3.2V20.8H19.7C20.3075 20.8 20.8 20.3075 20.8 19.7V4.3C20.8 3.69249 20.3075 3.2 19.7 3.2H8.8Z" fill="black"/>
<path id="Vector 65 (Stroke)" fill-rule="evenodd" clip-rule="evenodd" d="M12.8787 15.7071C12.4882 15.3166 12.4882 14.6834 12.8787 14.2929L15.1716 12L12.8787 9.70711C12.4882 9.31658 12.4882 8.68342 12.8787 8.29289C13.2692 7.90237 13.9024 7.90237 14.2929 8.29289L18 12L14.2929 15.7071C13.9024 16.0976 13.2692 16.0976 12.8787 15.7071Z" fill="black"/>
</g>
</svg>
