<svg width="179" height="137" viewBox="0 0 179 137" fill="none" xmlns="http://www.w3.org/2000/svg">
<path d="M58 5.5L6 65L70 131.5L87 84L115.5 114.5L160.5 31.5" stroke="#002848" stroke-width="2"/>
<path d="M6 65L58 5.5L160.5 31.5L115.5 114.5L87 84L70 131.5L6 65Z" fill="#EFF8FF" stroke="#002848" stroke-width="2"/>
<circle cx="61.5" cy="5" r="4" fill="white" stroke="#002848" stroke-width="2"/>
<circle cx="5.5" cy="66" r="4" fill="white" stroke="#002848" stroke-width="2"/>
<circle cx="69.5" cy="132" r="4" fill="white" stroke="#002848" stroke-width="2"/>
<circle cx="86.5" cy="85" r="4" fill="white" stroke="#002848" stroke-width="2"/>
<circle cx="114.5" cy="113" r="4" fill="white" stroke="#002848" stroke-width="2"/>
<path d="M169.337 35.836L166.071 44L159.54 26.0393L177.5 32.5705L169.337 35.836ZM169.337 35.836L177.5 44M156.582 15L157.85 19.7302M153.232 24.3494L148.5 23.0807M167.622 17.957L164.158 21.4218M154.921 30.6568L151.46 34.1216" stroke="#002848" stroke-width="2" stroke-linecap="round" stroke-linejoin="round"/>
</svg>
