<svg width="160" height="108" viewBox="0 0 160 108" fill="none" xmlns="http://www.w3.org/2000/svg">
<rect x="27" width="105" height="108" rx="6" fill="#F2F2F2"/>
<rect x="1.5" y="14.5" width="116" height="37" rx="3.5" fill="white"/>
<rect x="1.5" y="14.5" width="116" height="37" rx="3.5" stroke="#F2F2F2"/>
<rect x="7" y="20" width="26" height="26" rx="13" fill="#F2F2F2"/>
<path fill-rule="evenodd" clip-rule="evenodd" d="M15.2626 27.0961C15.5908 26.7679 16.0359 26.5835 16.5 26.5835H20.5833C20.738 26.5835 20.8864 26.645 20.9958 26.7544L25.0791 30.8377C25.1885 30.9471 25.25 31.0955 25.25 31.2502V37.6668C25.25 38.131 25.0656 38.5761 24.7374 38.9043C24.4092 39.2325 23.9641 39.4168 23.5 39.4168H16.5C16.0359 39.4168 15.5908 39.2325 15.2626 38.9043C14.9344 38.5761 14.75 38.131 14.75 37.6668V28.3335C14.75 27.8694 14.9344 27.4242 15.2626 27.0961ZM16.5 27.7502C16.3453 27.7502 16.1969 27.8116 16.0875 27.921C15.9781 28.0304 15.9167 28.1788 15.9167 28.3335V37.6668C15.9167 37.8215 15.9781 37.9699 16.0875 38.0793C16.1969 38.1887 16.3453 38.2502 16.5 38.2502H23.5C23.6547 38.2502 23.8031 38.1887 23.9125 38.0793C24.0219 37.9699 24.0833 37.8215 24.0833 37.6668V31.8335H20.5833C20.2612 31.8335 20 31.5723 20 31.2502L20 27.7502H16.5ZM21.1667 28.5751L23.2584 30.6668H21.1667L21.1667 28.5751Z" fill="#8A9CA8"/>
<rect x="39" y="27" width="30" height="4" rx="2" fill="#CFD6D9"/>
<rect x="39" y="35" width="61" height="4" rx="2" fill="#CFD6D9"/>
<rect x="41.5" y="56.5" width="117" height="37" rx="3.5" fill="white"/>
<rect x="41.5" y="56.5" width="117" height="37" rx="3.5" stroke="#F2F2F2"/>
<rect x="47" y="62" width="26" height="26" rx="13" fill="#F2F2F2"/>
<path fill-rule="evenodd" clip-rule="evenodd" d="M55.2626 69.0961C55.5908 68.7679 56.0359 68.5835 56.5 68.5835H60.5833C60.738 68.5835 60.8864 68.645 60.9958 68.7544L65.0791 72.8377C65.1885 72.9471 65.25 73.0955 65.25 73.2502V79.6668C65.25 80.131 65.0656 80.5761 64.7374 80.9043C64.4092 81.2325 63.9641 81.4168 63.5 81.4168H56.5C56.0359 81.4168 55.5908 81.2325 55.2626 80.9043C54.9344 80.5761 54.75 80.131 54.75 79.6668V70.3335C54.75 69.8694 54.9344 69.4242 55.2626 69.0961ZM56.5 69.7502C56.3453 69.7502 56.1969 69.8116 56.0875 69.921C55.9781 70.0304 55.9167 70.1788 55.9167 70.3335V79.6668C55.9167 79.8215 55.9781 79.9699 56.0875 80.0793C56.1969 80.1887 56.3453 80.2502 56.5 80.2502H63.5C63.6547 80.2502 63.8031 80.1887 63.9125 80.0793C64.0219 79.9699 64.0833 79.8215 64.0833 79.6668V73.8335H60.5833C60.2612 73.8335 60 73.5723 60 73.2502L60 69.7502H56.5ZM61.1667 70.5751L63.2584 72.6668H61.1667L61.1667 70.5751Z" fill="#8A9CA8"/>
<rect x="79" y="69" width="30" height="4" rx="2" fill="#CFD6D9"/>
<rect x="79" y="77" width="61" height="4" rx="2" fill="#CFD6D9"/>
</svg>
